<svg version="1" xmlns="http://www.w3.org/2000/svg" width="594" height="580" viewBox="-175 -166 594 580" fill="#231F20"><path fill="#F91D0A" d="M401.4 278.1h1.7c1.9 0 3.5-.5 3.5-2.2 0-1.3-.8-2.2-3.3-2.2a9 9 0 0 0-2 .2v4.3zm0 7.7h-2.6v-13.6a28 28 0 0 1 4.8-.4c2.3 0 3.4.4 4.3 1 .8.6 1.4 1.7 1.4 2.9 0 1.7-1.2 2.8-2.7 3.3v.1c1.2.5 1.9 1.6 2.3 3.3.4 2.1.6 3 1 3.4h-2.7c-.4-.5-.7-1.7-1-3.6-.3-1.5-1.2-2-3.2-2h-1.6v5.6zm2.6 6a13 13 0 1 1 0-26.2 13 13 0 0 1 0 26.2zm10.5-13a10.5 10.5 0 1 0-21 0 10.5 10.5 0 0 0 21 0z"/><path d="M-149.7 110.3l4.3-27.2c1.4-7.1 4.3-17.2 4.3-25.7h1.4c1.4 8.5 2.9 18.6 4.3 25.7l4.3 27.2h-18.6zm21.4 11.5l5.8 31.5h15.7L-131 41.6h-17.2l-25.8 111.7h15.8l5.7-31.5h24.3M-11.3 141.8c-10 0-12.9-15.7-12.9-28.6 0-12.9 2.9-30 13-30S.1 100.2.1 113.1c0 11.4-1.5 28.6-11.5 28.6zm0 13c11.5 0 27.2-10.1 27.2-41.6C16 86 4.5 71.7-11.3 71.7c-14.3 0-28.6 11.4-28.6 41.5 0 27.2 12.9 41.5 28.6 41.5"/><g fill="#F91D0A"><path d="M83.5 87.5A30.9 30.9 0 0 0 68.4 68v-.2l4.2-9.9L79 42.1C57.6-39.6 44.7-105.2 56.2-147.7c3.1-11 16-17.8 29.6-17.8l8.4.2h1.5c18.7-.3 27.6 23.5 28.6 32.8 1.6 15.5-5.5 41.6-5.5 41.6 0-10.6.4-27.6-6.3-42.3-7.7-17-15.1-27.2-21.8-28.9-3.3 2.3-6.6 7-7.7 15.9-2.3 12.5-3 28.3-3 36.4C80-81 85.7-43.1 96.8-4c2-6 4-11.8 5.4-17.3L119-86.9S115.3-11 110.2 12c-1 4.9-2.3 9.7-3.5 14.6a359 359 0 0 0 16.8 39.4l-.1.2c-2.6-.8-5.5-1.3-8.7-1.3-9.5 0-18.4 5-21.5 8a80.7 80.7 0 0 0-9.7 14.7zM121.8 121.3h21.5v-15l-.1-5.7v-.2a303.5 303.5 0 0 0 46.7 56 260 260 0 0 0 48 33.1c36.4-5.2 69.8-7.6 97.7-7.3 37 .5 64.1 6 75.1 16.8a28.6 28.6 0 0 1 8.3 18.7c.1 2.8-1.2 9.3-1.6 11 .4-2 .4-11.8-29.3-21.3-23.4-7.4-67.2-7.2-119.7-1.6 60.7 29.7 120 44.5 138.7 35.6 4.6-2.2 10.2-9.8 10.2-9.8s-3.4 15-5.7 18.8c-3 4-9 8.5-14.6 10-29.7 7.8-106.8-10.4-174-48.9C147.9 222.6 65.4 243-.7 264.7c-65 114-113.9 166.2-153.6 146.3l-14.6-7.3c-6-3.4-6.9-11.7-5.5-18.4 4.6-22.7 33-56.8 90.2-91 6.1-3.7 33.5-18.1 33.5-18.1s-20.3 19.6-25 23.4C-121.3 337-155 384-154.1 402.2l.2 1.6c38.7-5.6 96.8-84.3 171.4-230.4l5.9-11.5h29.9L41 185.5a2781 2781 0 0 1-35.9 65.3c62.3-26.1 129.2-42.8 193-54.7a310.5 310.5 0 0 1-76.3-75v.1z"/></g><path d="M203.9 54.5c1.4 0 4.3-1.4 7.2-1.4 12.8 0 17.1 10 17.1 21.4 0 13-7.1 21.5-18.6 21.5H204V54.5zm-15.7 98.8h15.7v-44.4h5.7c10 0 20-4.3 27.2-11.5 4.3-5.7 7.2-14.3 7.2-24.3s-2.9-18.6-8.6-24.3c-5.7-5.8-15.7-8.6-27.2-8.6-7.2 0-14.3 1.4-18.6 2.8l-1.4 110.3M266.9 54.5c1.4-1.4 4.3-1.4 5.7-1.4 15.8 0 24.4 15.7 24.4 41.5 0 35.8-13 45.8-25.8 45.8h-4.3v-86zm-15.7 98.8h15.7c14.3 0 24.3-2.9 31.5-11.5 8.6-7.1 14.3-22.9 14.3-47.2 0-23-5.7-37.2-14.3-44.4-7.2-7.2-15.8-10-28.6-10-7.2 0-13 1.4-18.6 2.8v110.3M321.3 41.6h44.4v12.9H337v35.8h27.2v14.3H337v48.7h-15.8V41.6"/><path d="M151.2 84h1.7c1.9 0 3.5-.6 3.5-2.2 0-1.3-.8-2.2-3.3-2.2a9 9 0 0 0-2 .1V84zm0 7.7h-2.6V78a28 28 0 0 1 4.8-.4c2.3 0 3.4.4 4.3 1 .8.6 1.4 1.7 1.4 3 0 1.7-1.2 2.7-2.7 3.2v.2c1.2.5 1.9 1.5 2.3 3.2.4 2.2.6 3 1 3.5H157c-.5-.5-.8-1.7-1.1-3.6-.3-1.5-1.2-2.1-3.2-2.1h-1.6v5.7zm2.6 6a13 13 0 1 1 0-26.2 13 13 0 0 1 0 26.1zm10.5-13.1a10.5 10.5 0 1 0-21 0 10.5 10.5 0 0 0 21 0z"/><path d="M100.8 104.6c0-10 4.3-21.5 11.5-21.5 7.1 0 11.4 7.2 11.4 21.5h-22.9zm37.2 11.5v-8.6c0-20-7.1-35.8-24.3-35.8-17.2 0-28.6 15.7-28.6 41.5s10 41.5 30 41.5c7.8 0 15.8-1.4 20-4.3l-2.8-11.4a34.2 34.2 0 0 1-12.9 2.8c-10 0-18.6-5.7-18.6-25.7H138"/><path fill="#1A171B" d="M-62.4 100.2c0-1.7-.4-4.2-1-5.8-1.3-5.1-5.2-9.9-9.9-9.9-9.4 0-13.4 11.4-13.4 27.9 0 18.1 3.8 29.5 13.3 29.5 3.4 0 7.6-2 10-9.7a18 18 0 0 0 1-6v-26zm15.7 30c0 7.2.4 16.4.6 23h-13.1l-1-9.6h-.5c-3.9 7.9-11 11-17.6 11-13.6 0-24.2-15.2-24.2-43.7 0-22.5 10.3-39.5 24.4-39.5 7 0 11.6 3.3 15.3 9.6h.3V38.9h15.8v91.3zM39.8 126.2c0 2.3.5 4.5 1 6 2.5 7.8 6.7 9.7 10 9.7 9.5 0 13.4-11.4 13.4-29.5 0-16.5-4.1-27.9-13.5-27.9-4.7 0-8.6 4.8-10 9.9-.4 1.6-.9 4.1-.9 5.8v26zM24.1 39H40v42h.3c3.7-6.2 8.2-9.5 15.3-9.5 14.1 0 24.4 17 24.4 39.5 0 28.5-10.5 43.7-24.2 43.7-6.5 0-13.7-3.1-17.6-11h-.4l-1 9.7H23.4c.2-6.7.6-15.9.6-23.1V38.9z"/></svg>