<?xml version="1.0" encoding="UTF-8" standalone="no"?>
<!-- Created with Inkscape (http://www.inkscape.org/) -->

<svg
   xmlns:dc="http://purl.org/dc/elements/1.1/"
   xmlns:cc="http://creativecommons.org/ns#"
   xmlns:rdf="http://www.w3.org/1999/02/22-rdf-syntax-ns#"
   xmlns:svg="http://www.w3.org/2000/svg"
   xmlns="http://www.w3.org/2000/svg"
   xmlns:sodipodi="http://sodipodi.sourceforge.net/DTD/sodipodi-0.dtd"
   xmlns:inkscape="http://www.inkscape.org/namespaces/inkscape"
   width="73.16246mm"
   height="73.16246mm"
   viewBox="0 0 259.23706 259.23706"
   id="svg2"
   version="1.1"
   inkscape:version="0.92.1 r"
   sodipodi:docname="detector.svg">
  <defs
     id="defs4" />
  <sodipodi:namedview
     id="base"
     pagecolor="#ffffff"
     bordercolor="#666666"
     borderopacity="1.0"
     inkscape:pageopacity="0.0"
     inkscape:pageshadow="2"
     inkscape:zoom="1.4"
     inkscape:cx="253.04183"
     inkscape:cy="105.4342"
     inkscape:document-units="px"
     inkscape:current-layer="layer1"
     showgrid="false"
     fit-margin-top="0"
     fit-margin-left="0"
     fit-margin-right="0"
     fit-margin-bottom="0"
     inkscape:window-width="1280"
     inkscape:window-height="991"
     inkscape:window-x="1280"
     inkscape:window-y="0"
     inkscape:window-maximized="1"
     inkscape:snap-bbox="true"
     inkscape:snap-bbox-edge-midpoints="true"
     inkscape:snap-midpoints="true"
     inkscape:snap-smooth-nodes="true"
     inkscape:object-nodes="true"
     inkscape:snap-intersection-paths="true"
     inkscape:object-paths="true"
     inkscape:snap-bbox-midpoints="true" />
  <metadata
     id="metadata7">
    <rdf:RDF>
      <cc:Work
         rdf:about="">
        <dc:format>image/svg+xml</dc:format>
        <dc:type
           rdf:resource="http://purl.org/dc/dcmitype/StillImage" />
        <dc:title />
      </cc:Work>
    </rdf:RDF>
  </metadata>
  <g
     inkscape:label="Layer 1"
     inkscape:groupmode="layer"
     id="layer1"
     transform="translate(-102.71655,-104.52011)">
    <rect
       style="fill:#e6e6e6;stroke:#000000;stroke-width:1.79583597;stroke-linecap:square;stroke-miterlimit:4;stroke-dasharray:none;stroke-dashoffset:0;stroke-opacity:1"
       id="rect5905-3"
       width="241.58817"
       height="147.9099"
       x="110.85104"
       y="159.48784" />
    <rect
       style="fill:#0000ff;stroke:#000000;stroke-width:1.79583597;stroke-linecap:square;stroke-miterlimit:4;stroke-dasharray:none;stroke-dashoffset:0;stroke-opacity:1"
       id="rect5907"
       width="37.632477"
       height="147.9099"
       x="110.85104"
       y="159.48784" />
    <g
       aria-label="Pilatus 300k"
       style="font-style:normal;font-weight:normal;line-height:0%;font-family:sans-serif;letter-spacing:0px;word-spacing:0px;fill:#000000;fill-opacity:1;stroke:none;stroke-width:1px;stroke-linecap:butt;stroke-linejoin:miter;stroke-opacity:1"
       id="text4809">
      <path
         d="m 160.76273,280.03299 v 8.21777 h 3.7207 q 2.06543,0 3.19336,-1.06933 1.12793,-1.06934 1.12793,-3.04688 0,-1.96289 -1.12793,-3.03222 -1.12793,-1.06934 -3.19336,-1.06934 z m -2.95899,-2.43164 h 6.67969 q 3.67676,0 5.55176,1.66992 1.88965,1.65527 1.88965,4.86328 0,3.23731 -1.88965,4.89258 -1.875,1.65527 -5.55176,1.65527 h -3.7207 v 8.78907 h -2.95899 z"
         style="font-size:30px;line-height:1.25;font-family:sans-serif"
         id="path5244" />
      <path
         d="m 175.14749,283.06522 h 2.69531 v 16.40625 h -2.69531 z m 0,-6.38672 h 2.69531 v 3.41308 h -2.69531 z"
         style="font-size:30px;line-height:1.25;font-family:sans-serif"
         id="path5246" />
      <path
         d="m 183.4678,276.6785 h 2.69532 v 22.79297 h -2.69532 z"
         style="font-size:30px;line-height:1.25;font-family:sans-serif"
         id="path5248" />
      <path
         d="m 199.24417,291.2244 q -3.2666,0 -4.52637,0.74707 -1.25976,0.74707 -1.25976,2.54882 0,1.43555 0.9375,2.28516 0.95215,0.83496 2.57812,0.83496 2.24121,0 3.58887,-1.58203 1.36231,-1.59668 1.36231,-4.2334 v -0.60058 z m 5.37598,-1.11329 v 9.36036 h -2.69531 v -2.49024 q -0.92286,1.49414 -2.29981,2.21192 -1.37695,0.70312 -3.36914,0.70312 -2.51953,0 -4.01367,-1.40625 -1.47949,-1.4209 -1.47949,-3.79394 0,-2.76856 1.8457,-4.17481 1.86035,-1.40625 5.53711,-1.40625 h 3.7793 v -0.26367 q 0,-1.86035 -1.23047,-2.87109 -1.21582,-1.0254 -3.42774,-1.0254 -1.40625,0 -2.73926,0.33692 -1.333,0.33691 -2.56347,1.01074 v -2.49023 q 1.47949,-0.57129 2.87109,-0.84961 1.3916,-0.29297 2.70996,-0.29297 3.55957,0 5.31739,1.8457 1.75781,1.8457 1.75781,5.5957 z"
         style="font-size:30px;line-height:1.25;font-family:sans-serif"
         id="path5250" />
      <path
         d="m 212.85257,278.40701 v 4.65821 h 5.55176 v 2.09472 h -5.55176 v 8.90625 q 0,2.00684 0.54199,2.57813 0.55664,0.57129 2.24121,0.57129 h 2.76856 v 2.25586 h -2.76856 q -3.12011,0 -4.30664,-1.15723 -1.18652,-1.17188 -1.18652,-4.24805 v -8.90625 h -1.97754 v -2.09472 h 1.97754 v -4.65821 z"
         style="font-size:30px;line-height:1.25;font-family:sans-serif"
         id="path5252" />
      <path
         d="m 221.68558,292.99686 v -9.93164 h 2.69531 v 9.8291 q 0,2.3291 0.9082,3.50097 0.90821,1.15723 2.72461,1.15723 2.18262,0 3.44239,-1.3916 1.27441,-1.3916 1.27441,-3.79395 v -9.30175 h 2.69531 v 16.40625 h -2.69531 v -2.51954 q -0.98145,1.49415 -2.28516,2.22657 -1.28906,0.71777 -3.00293,0.71777 -2.82715,0 -4.29199,-1.75781 -1.46484,-1.75781 -1.46484,-5.1416 z m 6.78222,-10.32715 z"
         style="font-size:30px;line-height:1.25;font-family:sans-serif"
         id="path5254" />
      <path
         d="m 251.46585,283.54861 v 2.54883 q -1.14258,-0.58593 -2.37305,-0.8789 -1.23046,-0.29297 -2.54882,-0.29297 -2.00684,0 -3.01758,0.61523 -0.9961,0.61524 -0.9961,1.84571 0,0.9375 0.71778,1.47949 0.71777,0.52734 2.88574,1.01074 l 0.92285,0.20508 q 2.87109,0.61523 4.07227,1.74316 1.21582,1.11328 1.21582,3.12012 0,2.28516 -1.81641,3.61816 -1.80176,1.33301 -4.96582,1.33301 -1.31836,0 -2.75391,-0.26367 -1.42089,-0.24902 -3.00293,-0.76172 v -2.7832 q 1.49415,0.77636 2.94434,1.17187 1.4502,0.38086 2.87109,0.38086 1.9043,0 2.92969,-0.64453 1.02539,-0.65918 1.02539,-1.8457 0,-1.09864 -0.74707,-1.68457 -0.73242,-0.58594 -3.2373,-1.12793 l -0.9375,-0.21973 q -2.50489,-0.52734 -3.61817,-1.61133 -1.11328,-1.09863 -1.11328,-3.00293 0,-2.31445 1.64063,-3.57422 1.64062,-1.25976 4.6582,-1.25976 1.49414,0 2.8125,0.21972 1.31836,0.21973 2.43164,0.65918 z"
         style="font-size:30px;line-height:1.25;font-family:sans-serif"
         id="path5256" />
      <path
         d="m 275.54788,287.67947 q 2.12403,0.45411 3.31055,1.88965 1.20117,1.43555 1.20117,3.54492 0,3.23731 -2.22656,5.00977 -2.22656,1.77246 -6.32813,1.77246 -1.37695,0 -2.84179,-0.27832 -1.4502,-0.26367 -3.00293,-0.80566 v -2.85645 q 1.23047,0.71777 2.69531,1.08399 1.46484,0.36621 3.06152,0.36621 2.78321,0 4.2334,-1.09864 1.46484,-1.09863 1.46484,-3.19336 0,-1.93359 -1.3623,-3.01757 -1.34766,-1.09864 -3.76465,-1.09864 h -2.54883 v -2.43164 h 2.66602 q 2.18262,0 3.33984,-0.86426 1.15723,-0.8789 1.15723,-2.51953 0,-1.68457 -1.20117,-2.57812 -1.18653,-0.9082 -3.41309,-0.9082 -1.21582,0 -2.60742,0.26367 -1.3916,0.26367 -3.06152,0.82031 v -2.63672 q 1.68457,-0.46875 3.14941,-0.70312 1.47949,-0.23438 2.7832,-0.23438 3.36914,0 5.33203,1.53809 1.9629,1.52343 1.9629,4.13086 0,1.8164 -1.04004,3.07617 -1.04004,1.24512 -2.95899,1.72851 z"
         style="font-size:30px;line-height:1.25;font-family:sans-serif"
         id="path5258" />
      <path
         d="m 292.01273,279.54959 q -2.28516,0 -3.44239,2.25586 -1.14258,2.24121 -1.14258,6.75293 0,4.49707 1.14258,6.75293 1.15723,2.24121 3.44239,2.24121 2.2998,0 3.44238,-2.24121 1.15723,-2.25586 1.15723,-6.75293 0,-4.51172 -1.15723,-6.75293 -1.14258,-2.25586 -3.44238,-2.25586 z m 0,-2.34375 q 3.67675,0 5.61035,2.91504 1.94824,2.90039 1.94824,8.4375 0,5.52246 -1.94824,8.4375 -1.9336,2.90039 -5.61035,2.90039 -3.67676,0 -5.625,-2.90039 -1.9336,-2.91504 -1.9336,-8.4375 0,-5.53711 1.9336,-8.4375 1.94824,-2.91504 5.625,-2.91504 z"
         style="font-size:30px;line-height:1.25;font-family:sans-serif"
         id="path5260" />
      <path
         d="m 311.11429,279.54959 q -2.28516,0 -3.44238,2.25586 -1.14258,2.24121 -1.14258,6.75293 0,4.49707 1.14258,6.75293 1.15722,2.24121 3.44238,2.24121 2.2998,0 3.44238,-2.24121 1.15723,-2.25586 1.15723,-6.75293 0,-4.51172 -1.15723,-6.75293 -1.14258,-2.25586 -3.44238,-2.25586 z m 0,-2.34375 q 3.67676,0 5.61035,2.91504 1.94824,2.90039 1.94824,8.4375 0,5.52246 -1.94824,8.4375 -1.93359,2.90039 -5.61035,2.90039 -3.67676,0 -5.625,-2.90039 -1.9336,-2.91504 -1.9336,-8.4375 0,-5.53711 1.9336,-8.4375 1.94824,-2.91504 5.625,-2.91504 z"
         style="font-size:30px;line-height:1.25;font-family:sans-serif"
         id="path5262" />
      <path
         d="m 323.40433,276.6785 h 2.70996 v 13.46191 l 8.04199,-7.07519 h 3.44238 l -8.70117,7.67578 9.06738,8.73047 h -3.51562 l -8.33496,-8.0127 v 8.0127 h -2.70996 z"
         style="font-size:30px;line-height:1.25;font-family:sans-serif"
         id="path5264" />
    </g>
  </g>
</svg>
