<?xml version="1.0" encoding="UTF-8" standalone="no"?>
<!-- Created with Inkscape (http://www.inkscape.org/) -->

<svg
        xmlns:dc="http://purl.org/dc/elements/1.1/"
        xmlns:cc="http://creativecommons.org/ns#"
        xmlns:rdf="http://www.w3.org/1999/02/22-rdf-syntax-ns#"
        xmlns="http://www.w3.org/2000/svg"
        xmlns:sodipodi="http://sodipodi.sourceforge.net/DTD/sodipodi-0.dtd"
        xmlns:inkscape="http://www.inkscape.org/namespaces/inkscape"
        width="330"
        height="330"
        id="svg2"
        version="1.1"
        inkscape:version="0.48.4 r9939"
        sodipodi:docname="fitpeak.svg"
        inkscape:export-filename="/home/labuser/workspace/SAXSCtrl/saxsctrl/widgets/fitpeak.png"
        inkscape:export-xdpi="69.82"
        inkscape:export-ydpi="69.82">
  <defs
     id="defs4">
    <marker
       inkscape:stockid="Arrow1Lstart"
       orient="auto"
       refY="0"
       refX="0"
       id="Arrow1Lstart"
       style="overflow:visible">
      <path
         id="path3761"
         d="M 0,0 5,-5 -12.5,0 5,5 0,0 z"
         style="fill-rule:evenodd;stroke:#000000;stroke-width:1pt"
         transform="matrix(0.8,0,0,0.8,10,0)"
         inkscape:connector-curvature="0" />
    </marker>
    <marker
       inkscape:stockid="Arrow1Lend"
       orient="auto"
       refY="0"
       refX="0"
       id="Arrow1Lend"
       style="overflow:visible">
      <path
         id="path3764"
         d="M 0,0 5,-5 -12.5,0 5,5 0,0 z"
         style="fill-rule:evenodd;stroke:#000000;stroke-width:1pt"
         transform="matrix(-0.8,0,0,-0.8,-10,0)"
         inkscape:connector-curvature="0" />
    </marker>
  </defs>
  <sodipodi:namedview
     id="base"
     pagecolor="#ffffff"
     bordercolor="#666666"
     borderopacity="1.0"
     inkscape:pageopacity="1"
     inkscape:pageshadow="2"
     inkscape:zoom="2.5301587"
     inkscape:cx="180.50949"
     inkscape:cy="313.86818"
     inkscape:document-units="px"
     inkscape:current-layer="layer1"
     showgrid="false"
     fit-margin-top="0"
     fit-margin-left="0"
     fit-margin-right="0"
     fit-margin-bottom="0"
     inkscape:window-width="1920"
     inkscape:window-height="978"
     inkscape:window-x="0"
     inkscape:window-y="31"
     inkscape:window-maximized="1" />
  <metadata
     id="metadata7">
    <rdf:RDF>
      <cc:Work
         rdf:about="">
        <dc:format>image/svg+xml</dc:format>
        <dc:type
           rdf:resource="http://purl.org/dc/dcmitype/StillImage" />
        <dc:title></dc:title>
      </cc:Work>
    </rdf:RDF>
  </metadata>
  <g
     inkscape:label="Layer 1"
     inkscape:groupmode="layer"
     id="layer1"
     transform="translate(-52.214286,-370.1479)">
    <path
       style="fill:none;stroke:#000000;stroke-width:3;stroke-linecap:butt;stroke-linejoin:miter;stroke-miterlimit:4;stroke-opacity:1;stroke-dasharray:none;marker-start:url(#Arrow1Lstart);marker-end:url(#Arrow1Lend)"
       d="m 65.714286,386.6479 0,300 311.238574,0"
       id="path3755"
       inkscape:connector-curvature="0"
       sodipodi:nodetypes="ccc" />
    <path
       sodipodi:type="arc"
       style="fill:#000000;fill-opacity:1;stroke:#000000;stroke-width:3;stroke-miterlimit:4;stroke-opacity:1;stroke-dasharray:none"
       id="path4569"
       sodipodi:cx="194.28572"
       sodipodi:cy="266.64789"
       sodipodi:rx="11.428572"
       sodipodi:ry="11.428572"
       d="m 205.71429,266.64789 c 0,6.31182 -5.11674,11.42857 -11.42857,11.42857 -6.31183,0 -11.42857,-5.11675 -11.42857,-11.42857 0,-6.31183 5.11674,-11.42857 11.42857,-11.42857 6.31183,0 11.42857,5.11674 11.42857,11.42857 z"
       transform="translate(-100,380)" />
    <path
       transform="translate(-40,362.85714)"
       d="m 205.71429,266.64789 c 0,6.31182 -5.11674,11.42857 -11.42857,11.42857 -6.31183,0 -11.42857,-5.11675 -11.42857,-11.42857 0,-6.31183 5.11674,-11.42857 11.42857,-11.42857 6.31183,0 11.42857,5.11674 11.42857,11.42857 z"
       sodipodi:ry="11.428572"
       sodipodi:rx="11.428572"
       sodipodi:cy="266.64789"
       sodipodi:cx="194.28572"
       id="path4582"
       style="fill:#000000;fill-opacity:1;stroke:#000000;stroke-width:3;stroke-miterlimit:4;stroke-opacity:1;stroke-dasharray:none"
       sodipodi:type="arc" />
    <path
       sodipodi:type="arc"
       style="fill:#000000;fill-opacity:1;stroke:#000000;stroke-width:3;stroke-miterlimit:4;stroke-opacity:1;stroke-dasharray:none"
       id="path4584"
       sodipodi:cx="194.28572"
       sodipodi:cy="266.64789"
       sodipodi:rx="11.428572"
       sodipodi:ry="11.428572"
       d="m 205.71429,266.64789 c 0,6.31182 -5.11674,11.42857 -11.42857,11.42857 -6.31183,0 -11.42857,-5.11675 -11.42857,-11.42857 0,-6.31183 5.11674,-11.42857 11.42857,-11.42857 6.31183,0 11.42857,5.11674 11.42857,11.42857 z"
       transform="translate(-60,302.85714)" />
    <path
       transform="translate(-25.714286,245.71428)"
       d="m 205.71429,266.64789 c 0,6.31182 -5.11674,11.42857 -11.42857,11.42857 -6.31183,0 -11.42857,-5.11675 -11.42857,-11.42857 0,-6.31183 5.11674,-11.42857 11.42857,-11.42857 6.31183,0 11.42857,5.11674 11.42857,11.42857 z"
       sodipodi:ry="11.428572"
       sodipodi:rx="11.428572"
       sodipodi:cy="266.64789"
       sodipodi:cx="194.28572"
       id="path4588"
       style="fill:#000000;fill-opacity:1;stroke:#000000;stroke-width:3;stroke-miterlimit:4;stroke-opacity:1;stroke-dasharray:none"
       sodipodi:type="arc" />
    <path
       sodipodi:type="arc"
       style="fill:#000000;fill-opacity:1;stroke:#000000;stroke-width:3;stroke-miterlimit:4;stroke-opacity:1;stroke-dasharray:none"
       id="path4590"
       sodipodi:cx="194.28572"
       sodipodi:cy="266.64789"
       sodipodi:rx="11.428572"
       sodipodi:ry="11.428572"
       d="m 205.71429,266.64789 c 0,6.31182 -5.11674,11.42857 -11.42857,11.42857 -6.31183,0 -11.42857,-5.11675 -11.42857,-11.42857 0,-6.31183 5.11674,-11.42857 11.42857,-11.42857 6.31183,0 11.42857,5.11674 11.42857,11.42857 z"
       transform="translate(2.8571426,157.14285)" />
    <path
       transform="translate(30.571428,132.85714)"
       d="m 205.71429,266.64789 c 0,6.31182 -5.11674,11.42857 -11.42857,11.42857 -6.31183,0 -11.42857,-5.11675 -11.42857,-11.42857 0,-6.31183 5.11674,-11.42857 11.42857,-11.42857 6.31183,0 11.42857,5.11674 11.42857,11.42857 z"
       sodipodi:ry="11.428572"
       sodipodi:rx="11.428572"
       sodipodi:cy="266.64789"
       sodipodi:cx="194.28572"
       id="path4592"
       style="fill:#000000;fill-opacity:1;stroke:#000000;stroke-width:3;stroke-miterlimit:4;stroke-opacity:1;stroke-dasharray:none"
       sodipodi:type="arc" />
    <path
       sodipodi:type="arc"
       style="fill:#000000;fill-opacity:1;stroke:#000000;stroke-width:3;stroke-miterlimit:4;stroke-opacity:1;stroke-dasharray:none"
       id="path4594"
       sodipodi:cx="194.28572"
       sodipodi:cy="266.64789"
       sodipodi:rx="11.428572"
       sodipodi:ry="11.428572"
       d="m 205.71429,266.64789 c 0,6.31182 -5.11674,11.42857 -11.42857,11.42857 -6.31183,0 -11.42857,-5.11675 -11.42857,-11.42857 0,-6.31183 5.11674,-11.42857 11.42857,-11.42857 6.31183,0 11.42857,5.11674 11.42857,11.42857 z"
       transform="translate(65.142857,170.57143)" />
    <path
       transform="translate(77.142853,268.57143)"
       d="m 205.71429,266.64789 c 0,6.31182 -5.11674,11.42857 -11.42857,11.42857 -6.31183,0 -11.42857,-5.11675 -11.42857,-11.42857 0,-6.31183 5.11674,-11.42857 11.42857,-11.42857 6.31183,0 11.42857,5.11674 11.42857,11.42857 z"
       sodipodi:ry="11.428572"
       sodipodi:rx="11.428572"
       sodipodi:cy="266.64789"
       sodipodi:cx="194.28572"
       id="path4596"
       style="fill:#000000;fill-opacity:1;stroke:#000000;stroke-width:3;stroke-miterlimit:4;stroke-opacity:1;stroke-dasharray:none"
       sodipodi:type="arc" />
    <path
       sodipodi:type="arc"
       style="fill:#000000;fill-opacity:1;stroke:#000000;stroke-width:3;stroke-miterlimit:4;stroke-opacity:1;stroke-dasharray:none"
       id="path4602"
       sodipodi:cx="194.28572"
       sodipodi:cy="266.64789"
       sodipodi:rx="11.428572"
       sodipodi:ry="11.428572"
       d="m 205.71429,266.64789 c 0,6.31182 -5.11674,11.42857 -11.42857,11.42857 -6.31183,0 -11.42857,-5.11675 -11.42857,-11.42857 0,-6.31183 5.11674,-11.42857 11.42857,-11.42857 6.31183,0 11.42857,5.11674 11.42857,11.42857 z"
       transform="translate(82.857139,220)" />
    <path
       transform="translate(82.857139,220)"
       d="m 205.71429,266.64789 c 0,6.31182 -5.11674,11.42857 -11.42857,11.42857 -6.31183,0 -11.42857,-5.11675 -11.42857,-11.42857 0,-6.31183 5.11674,-11.42857 11.42857,-11.42857 6.31183,0 11.42857,5.11674 11.42857,11.42857 z"
       sodipodi:ry="11.428572"
       sodipodi:rx="11.428572"
       sodipodi:cy="266.64789"
       sodipodi:cx="194.28572"
       id="path4604"
       style="fill:#000000;fill-opacity:1;stroke:#000000;stroke-width:3;stroke-miterlimit:4;stroke-opacity:1;stroke-dasharray:none"
       sodipodi:type="arc" />
    <path
       sodipodi:type="arc"
       style="fill:#000000;fill-opacity:1;stroke:#000000;stroke-width:3;stroke-miterlimit:4;stroke-opacity:1;stroke-dasharray:none"
       id="path4606"
       sodipodi:cx="194.28572"
       sodipodi:cy="266.64789"
       sodipodi:rx="11.428572"
       sodipodi:ry="11.428572"
       d="m 205.71429,266.64789 c 0,6.31182 -5.11674,11.42857 -11.42857,11.42857 -6.31183,0 -11.42857,-5.11675 -11.42857,-11.42857 0,-6.31183 5.11674,-11.42857 11.42857,-11.42857 6.31183,0 11.42857,5.11674 11.42857,11.42857 z"
       transform="translate(122.85714,308.57143)" />
    <path
       transform="translate(131.42857,385.71429)"
       d="m 205.71429,266.64789 c 0,6.31182 -5.11674,11.42857 -11.42857,11.42857 -6.31183,0 -11.42857,-5.11675 -11.42857,-11.42857 0,-6.31183 5.11674,-11.42857 11.42857,-11.42857 6.31183,0 11.42857,5.11674 11.42857,11.42857 z"
       sodipodi:ry="11.428572"
       sodipodi:rx="11.428572"
       sodipodi:cy="266.64789"
       sodipodi:cx="194.28572"
       id="path4608"
       style="fill:#000000;fill-opacity:1;stroke:#000000;stroke-width:3;stroke-miterlimit:4;stroke-opacity:1;stroke-dasharray:none"
       sodipodi:type="arc" />
    <path
       sodipodi:type="arc"
       style="fill:#000000;fill-opacity:1;stroke:#000000;stroke-width:3;stroke-miterlimit:4;stroke-opacity:1;stroke-dasharray:none"
       id="path4610"
       sodipodi:cx="194.28572"
       sodipodi:cy="266.64789"
       sodipodi:rx="11.428572"
       sodipodi:ry="11.428572"
       d="m 205.71429,266.64789 c 0,6.31182 -5.11674,11.42857 -11.42857,11.42857 -6.31183,0 -11.42857,-5.11675 -11.42857,-11.42857 0,-6.31183 5.11674,-11.42857 11.42857,-11.42857 6.31183,0 11.42857,5.11674 11.42857,11.42857 z"
       transform="translate(111.42857,360)" />
    <path
       transform="translate(165.71428,394.28571)"
       d="m 205.71429,266.64789 c 0,6.31182 -5.11674,11.42857 -11.42857,11.42857 -6.31183,0 -11.42857,-5.11675 -11.42857,-11.42857 0,-6.31183 5.11674,-11.42857 11.42857,-11.42857 6.31183,0 11.42857,5.11674 11.42857,11.42857 z"
       sodipodi:ry="11.428572"
       sodipodi:rx="11.428572"
       sodipodi:cy="266.64789"
       sodipodi:cx="194.28572"
       id="path4612"
       style="fill:#000000;fill-opacity:1;stroke:#000000;stroke-width:3;stroke-miterlimit:4;stroke-opacity:1;stroke-dasharray:none"
       sodipodi:type="arc" />
    <path
       style="fill:none;stroke:#ff0000;stroke-width:10;stroke-linecap:butt;stroke-linejoin:miter;stroke-miterlimit:4;stroke-opacity:1;stroke-dasharray:40, 40;stroke-dashoffset:0"
       d="M 77.142857,675.21932 C 185.71429,666.64789 137.15249,398.19531 217.14286,398.07647 c 79.99036,-0.11885 35.2381,256.19047 154.28572,271.42857"
       id="path2985"
       inkscape:connector-curvature="0"
       sodipodi:nodetypes="czc" />
  </g>
</svg>
