<?xml version="1.0" encoding="UTF-8" standalone="no"?>
<svg
        xmlns:dc="http://purl.org/dc/elements/1.1/"
        xmlns:cc="http://creativecommons.org/ns#"
        xmlns:rdf="http://www.w3.org/1999/02/22-rdf-syntax-ns#"
        xmlns="http://www.w3.org/2000/svg"
        version="1.1"
        id="svg2"
        height="330"
        width="330">
  <defs
     id="defs4">
    <marker
       style="overflow:visible"
       id="Arrow1Lstart"
       refX="0"
       refY="0"
       orient="auto">
      <path
         transform="matrix(0.8,0,0,0.8,10,0)"
         style="fill-rule:evenodd;stroke:#000000;stroke-width:1pt"
         d="M 0,0 5,-5 -12.5,0 5,5 0,0 z"
         id="path3761" />
    </marker>
    <marker
       style="overflow:visible"
       id="Arrow1Lend"
       refX="0"
       refY="0"
       orient="auto">
      <path
         transform="matrix(-0.8,0,0,-0.8,-10,0)"
         style="fill-rule:evenodd;stroke:#000000;stroke-width:1pt"
         d="M 0,0 5,-5 -12.5,0 5,5 0,0 z"
         id="path3764" />
    </marker>
  </defs>
  <metadata
     id="metadata7">
    <rdf:RDF>
      <cc:Work
         rdf:about="">
        <dc:format>image/svg+xml</dc:format>
        <dc:type
           rdf:resource="http://purl.org/dc/dcmitype/StillImage" />
        <dc:title></dc:title>
      </cc:Work>
    </rdf:RDF>
  </metadata>
  <g
     transform="translate(-52.214286,-370.1479)"
     id="layer1">
    <path
       id="path3755"
       d="m 65.714286,386.6479 0,300 311.238574,0"
       style="fill:none;stroke:#000000;stroke-width:3;stroke-linecap:butt;stroke-linejoin:miter;stroke-miterlimit:4;stroke-opacity:1;stroke-dasharray:none;marker-start:url(#Arrow1Lstart);marker-end:url(#Arrow1Lend)" />
    <circle
       r="11.428572"
       cy="608.95294"
       cx="256.25562"
       style="fill:#000000;fill-opacity:1;stroke:#000000;stroke-width:3;stroke-miterlimit:4;stroke-dasharray:none;stroke-opacity:1"
       id="path4582" />
    <path
       transform="translate(-60,302.85714)"
       d="m 205.71429,266.64789 a 11.428572,11.428572 0 0 1 -11.42857,11.42857 11.428572,11.428572 0 0 1 -11.42857,-11.42857 11.428572,11.428572 0 0 1 11.42857,-11.42857 11.428572,11.428572 0 0 1 11.42857,11.42857 z"
       id="path4584"
       style="fill:#000000;fill-opacity:1;stroke:#000000;stroke-width:3;stroke-miterlimit:4;stroke-opacity:1;stroke-dasharray:none" />
    <circle
       r="11.428572"
       cy="457.82013"
       cx="153.55261"
       style="fill:#000000;fill-opacity:1;stroke:#000000;stroke-width:3;stroke-miterlimit:4;stroke-dasharray:none;stroke-opacity:1"
       id="path4588" />
    <circle
       r="11.428572"
       cy="514.69415"
       cx="210.58075"
       id="path4590"
       style="fill:#000000;fill-opacity:1;stroke:#000000;stroke-width:3;stroke-miterlimit:4;stroke-dasharray:none;stroke-opacity:1" />
    <path
       style="fill:#000000;fill-opacity:1;stroke:#000000;stroke-width:3;stroke-miterlimit:4;stroke-opacity:1;stroke-dasharray:none"
       id="path4592"
       d="m 205.71429,266.64789 a 11.428572,11.428572 0 0 1 -11.42857,11.42857 11.428572,11.428572 0 0 1 -11.42857,-11.42857 11.428572,11.428572 0 0 1 11.42857,-11.42857 11.428572,11.428572 0 0 1 11.42857,11.42857 z"
       transform="translate(30.571428,132.85714)" />
    <path
       transform="translate(82.857139,220)"
       d="m 205.71429,266.64789 a 11.428572,11.428572 0 0 1 -11.42857,11.42857 11.428572,11.428572 0 0 1 -11.42857,-11.42857 11.428572,11.428572 0 0 1 11.42857,-11.42857 11.428572,11.428572 0 0 1 11.42857,11.42857 z"
       id="path4602"
       style="fill:#000000;fill-opacity:1;stroke:#000000;stroke-width:3;stroke-miterlimit:4;stroke-opacity:1;stroke-dasharray:none" />
    <path
       style="fill:#000000;fill-opacity:1;stroke:#000000;stroke-width:3;stroke-miterlimit:4;stroke-opacity:1;stroke-dasharray:none"
       id="path4604"
       d="m 205.71429,266.64789 a 11.428572,11.428572 0 0 1 -11.42857,11.42857 11.428572,11.428572 0 0 1 -11.42857,-11.42857 11.428572,11.428572 0 0 1 11.42857,-11.42857 11.428572,11.428572 0 0 1 11.42857,11.42857 z"
       transform="translate(82.857139,220)" />
    <path
       transform="translate(122.85714,308.57143)"
       d="m 205.71429,266.64789 a 11.428572,11.428572 0 0 1 -11.42857,11.42857 11.428572,11.428572 0 0 1 -11.42857,-11.42857 11.428572,11.428572 0 0 1 11.42857,-11.42857 11.428572,11.428572 0 0 1 11.42857,11.42857 z"
       id="path4606"
       style="fill:#000000;fill-opacity:1;stroke:#000000;stroke-width:3;stroke-miterlimit:4;stroke-opacity:1;stroke-dasharray:none" />
    <path
       style="fill:#000000;fill-opacity:1;stroke:#000000;stroke-width:3;stroke-miterlimit:4;stroke-opacity:1;stroke-dasharray:none"
       id="path4608"
       d="m 205.71429,266.64789 a 11.428572,11.428572 0 0 1 -11.42857,11.42857 11.428572,11.428572 0 0 1 -11.42857,-11.42857 11.428572,11.428572 0 0 1 11.42857,-11.42857 11.428572,11.428572 0 0 1 11.42857,11.42857 z"
       transform="translate(131.42857,385.71429)" />
    <circle
       r="11.428572"
       cy="508.86871"
       cx="108.09823"
       id="path4610"
       style="fill:#000000;fill-opacity:1;stroke:#000000;stroke-width:3;stroke-miterlimit:4;stroke-dasharray:none;stroke-opacity:1" />
    <circle
       r="11.428572"
       cy="638.01013"
       cx="176.61229"
       style="fill:#000000;fill-opacity:1;stroke:#000000;stroke-width:3;stroke-miterlimit:4;stroke-dasharray:none;stroke-opacity:1"
       id="path4612" />
  </g>
</svg>
