<?xml version="1.0" encoding="UTF-8" standalone="no"?>
<svg
   xmlns:dc="http://purl.org/dc/elements/1.1/"
   xmlns:cc="http://creativecommons.org/ns#"
   xmlns:rdf="http://www.w3.org/1999/02/22-rdf-syntax-ns#"
   xmlns:svg="http://www.w3.org/2000/svg"
   xmlns="http://www.w3.org/2000/svg"
   xmlns:sodipodi="http://sodipodi.sourceforge.net/DTD/sodipodi-0.dtd"
   xmlns:inkscape="http://www.inkscape.org/namespaces/inkscape"
   version="1.1"
   viewBox="34 34 486 502"
   width="486pt"
   height="502pt"
   id="svg26"
   sodipodi:docname="jpeg.svg"
   inkscape:version="1.0.1 (3bc2e813f5, 2020-09-07)">
  <sodipodi:namedview
     pagecolor="#ffffff"
     bordercolor="#666666"
     borderopacity="1"
     objecttolerance="10"
     gridtolerance="10"
     guidetolerance="10"
     inkscape:pageopacity="0"
     inkscape:pageshadow="2"
     inkscape:window-width="1920"
     inkscape:window-height="1011"
     id="namedview28"
     showgrid="false"
     inkscape:zoom="1.0682271"
     inkscape:cx="324"
     inkscape:cy="334.66667"
     inkscape:window-x="0"
     inkscape:window-y="0"
     inkscape:window-maximized="1"
     inkscape:current-layer="svg26" />
  <metadata
     id="metadata2"> Produced by OmniGraffle 7.0.2 
    <dc:date>2016-10-21 08:39:53 +0000</dc:date>
<rdf:RDF>
  <cc:Work
     rdf:about="">
    <dc:format>image/svg+xml</dc:format>
    <dc:type
       rdf:resource="http://purl.org/dc/dcmitype/StillImage" />
    <dc:title></dc:title>
  </cc:Work>
</rdf:RDF>
</metadata>
  <defs
     id="defs4" />
  <path
     d="m 204.59644,460.6327 c -13.1796,0 -22.5663,-0.54286 -22.5663,-0.54286 v -66.08908 h 22.43601 c 24.88257,0 40.75485,6.89814 40.75485,29.81189 0,19.4596 -6.87645,36.82005 -40.62456,36.82005 m 0.59354,-82.9081 H 163.8416 v 158.02344 h 18.18854 v -58.4671 h 26.65742 c 37.25726,0 55.05927,-22.91374 55.05927,-51.91204 0,-29.53105 -18.21459,-47.6443 -58.55685,-47.6443"
     fill="#ffffff"
     id="path10"
     style="fill-opacity:1;stroke:none;stroke-dasharray:none;stroke-opacity:1;fill:#00b9c3" />
  <path
     d="m 305.17426,464.0653 h 64.04497 V 447.09135 H 305.17426 V 393.7794 h 74.16999 v -16.05466 h -92.3455 V 532.84705 H 382.4524 V 516.7808 h -77.27814 z"
     fill="#ffffff"
     id="path12"
     style="fill-opacity:1;stroke:none;stroke-dasharray:none;stroke-opacity:1;fill:#00b9c3" />
  <path
     d="m 474.82323,450.8327 v 15.74344 h 26.93971 v 39.0046 c -8.24738,12.26322 -30.34754,12.26322 -30.34754,12.26322 -16.82917,0 -30.3953,-5.78776 -40.2858,-17.50526 -9.81375,-11.6624 -14.77347,-24.20793 -14.77347,-43.0595 0,-19.80705 4.90907,-35.01773 14.86467,-47.1883 10.07147,-12.1836 24.0531,-18.92685 41.4396,-18.92685 8.9061,0 18.4752,2.74335 27.79674,8.46598 l 11.23683,-12.58316 c -10.05987,-8.28647 -22.90361,-12.40365 -38.46317,-12.40365 -23.18736,0 -41.9202,7.56118 -55.51386,22.56628 -13.73694,14.96605 -20.70024,34.8918 -20.70024,59.21557 0,24.33969 6.38133,42.72367 18.8226,57.39293 12.3501,14.4593 29.68596,21.8902 51.00726,21.8902 9.60819,0 19.47264,-0.9048 29.73951,-4.11715 7.90863,-2.49868 10.62883,-4.51818 22.47363,-4.51818 V 450.8327 Z"
     fill="#ffffff"
     id="path14"
     style="fill-opacity:1;stroke:none;stroke-dasharray:none;stroke-opacity:1;fill:#00b9c3" />
  <path
     d="M 106.28205,377.7253 H 94.08686 V 393.78 h 12.19519 v 74.6593 c 0,23.0194 0.68764,36.4972 -7.20941,44.3943 -4.93511,4.9959 -12.04317,7.677 -18.08865,7.677 -28.46845,0 -29.503536,-22.8124 -29.503536,-22.8124 H 34.01575 c 1.669163,40.5999 49.37717,37.8942 49.37717,37.8942 12.68739,-0.67316 22.73423,-4.8555 30.55455,-12.712 10.35663,-10.43625 10.60274,-29.7395 10.60274,-45.84484 V 377.7253 Z"
     fill="#ffffff"
     id="path16"
     style="fill-opacity:1;stroke:none;stroke-dasharray:none;stroke-opacity:1;fill:#00b9c3" />
  <path
     d="M 388.4181,34.01575 H 89.70998 V 332.59504 H 262.51704 V 206.9256 H 388.4181 Z"
     fill="#ffffff"
     id="path18"
     style="fill-opacity:1;stroke:none;stroke-dasharray:none;stroke-opacity:1;fill:#00b9c3" />
  <rect
     x="402.76511"
     y="223.56107"
     width="108.97924"
     height="109.0328"
     fill="#ffffff"
     id="rect20"
     style="fill-opacity:1;stroke:none;stroke-dasharray:none;stroke-opacity:1;fill:#00b9c3" />
</svg>
