<?xml version="1.0" encoding="UTF-8" standalone="no"?>
<!-- Created with Inkscape (http://www.inkscape.org/) -->

<svg
        xmlns:dc="http://purl.org/dc/elements/1.1/"
        xmlns:cc="http://creativecommons.org/ns#"
        xmlns:rdf="http://www.w3.org/1999/02/22-rdf-syntax-ns#"
        xmlns:sodipodi="http://sodipodi.sourceforge.net/DTD/sodipodi-0.dtd"
        xmlns:inkscape="http://www.inkscape.org/namespaces/inkscape"
        xmlns="http://www.w3.org/2000/svg"
        width="352"
        height="352"
        id="svg2"
        version="1.1"
        inkscape:version="0.92.0 r"
        sodipodi:docname="legend.svg"
        inkscape:export-filename="/home/labuser/workspace/SAXSCtrl/saxsctrl/widgets/fitpeak.png"
        inkscape:export-xdpi="69.82"
        inkscape:export-ydpi="69.82">
    <defs
            id="defs4">
        <marker
                inkscape:stockid="Arrow1Lstart"
                orient="auto"
                refY="0"
                refX="0"
                id="Arrow1Lstart"
                style="overflow:visible">
            <path
                    id="path3761"
                    d="M 10.666667,0 14.933333,-4.2666667 0,0 14.933333,4.2666667 Z"
                    style="fill-rule:evenodd;stroke:#000000;stroke-width:0.85333335pt"
                    inkscape:connector-curvature="0"/>
        </marker>
        <marker
                inkscape:stockid="Arrow1Lend"
                orient="auto"
                refY="0"
                refX="0"
                id="Arrow1Lend"
                style="overflow:visible">
            <path
                    id="path3764"
                    d="M -10.666667,0 -14.933333,4.2666667 0,0 -14.933333,-4.2666667 Z"
                    style="fill-rule:evenodd;stroke:#000000;stroke-width:0.85333335pt"
                    inkscape:connector-curvature="0"/>
        </marker>
    </defs>
    <sodipodi:namedview
            id="base"
            pagecolor="#ffffff"
            bordercolor="#666666"
            borderopacity="1.0"
            inkscape:pageopacity="1"
            inkscape:pageshadow="2"
            inkscape:zoom="1.374037"
            inkscape:cx="299.92249"
            inkscape:cy="235.65965"
            inkscape:document-units="px"
            inkscape:current-layer="g4715"
            showgrid="true"
            fit-margin-top="0"
            fit-margin-left="0"
            fit-margin-right="0"
            fit-margin-bottom="0"
            inkscape:window-width="1280"
            inkscape:window-height="991"
            inkscape:window-x="1280"
            inkscape:window-y="0"
            inkscape:window-maximized="1"
            inkscape:snap-midpoints="true"
            inkscape:snap-page="true"
            inkscape:snap-bbox="true"
            inkscape:snap-object-midpoints="true"
            inkscape:snap-bbox-midpoints="true"
            inkscape:snap-center="true">
        <inkscape:grid
                type="xygrid"
                id="grid4717"
                spacingx="11"
                spacingy="11"/>
    </sodipodi:namedview>
    <metadata
            id="metadata7">
        <rdf:RDF>
            <cc:Work
                    rdf:about="">
                <dc:format>image/svg+xml</dc:format>
                <dc:type
                        rdf:resource="http://purl.org/dc/dcmitype/StillImage"/>
                <dc:title></dc:title>
            </cc:Work>
        </rdf:RDF>
    </metadata>
    <g
            inkscape:label="Layer 1"
            inkscape:groupmode="layer"
            id="layer1"
            transform="translate(-55.695238,-394.82443)">
        <g
                id="g4715"
                transform="translate(-0.25729954,-1.2865624)">
            <rect
                    y="432.90631"
                    x="78.853134"
                    height="278.40936"
                    width="306.19882"
                    id="rect4519"
                    style="fill:#ffffff;stroke:#000000;stroke-width:3;stroke-miterlimit:4;stroke-dasharray:none"/>
            <g
                    id="g4881">
                <path
                        d="m 237.26544,460.43584 v 4.16016 q -1.99219,-1.85547 -4.25781,-2.77344 -2.2461,-0.91797 -4.78516,-0.91797 -5,0 -7.65625,3.06641 -2.65625,3.04687 -2.65625,8.82812 0,5.76172 2.65625,8.82813 2.65625,3.04687 7.65625,3.04687 2.53906,0 4.78516,-0.91797 2.26562,-0.91797 4.25781,-2.77343 v 4.12109 q -2.07031,1.40625 -4.39453,2.10937 -2.30469,0.70313 -4.88282,0.70313 -6.62109,0 -10.42968,-4.04297 -3.8086,-4.0625 -3.8086,-11.07422 0,-7.03125 3.8086,-11.07422 3.80859,-4.0625 10.42968,-4.0625 2.61719,0 4.92188,0.70313 2.32422,0.68359 4.35547,2.07031 z"
                        style="font-style:normal;font-weight:normal;font-size:medium;line-height:25px;font-family:sans-serif;letter-spacing:0px;word-spacing:0px;fill:#000000;fill-opacity:1;stroke:none;stroke-width:1px;stroke-linecap:butt;stroke-linejoin:miter;stroke-opacity:1"
                        id="path4804"
                        inkscape:connector-curvature="0"/>
                <path
                        d="M 242.87091,478.71709 V 465.4749 h 3.59375 v 13.10547 q 0,3.10547 1.21093,4.66797 1.21094,1.54297 3.63282,1.54297 2.91015,0 4.58984,-1.85547 1.69922,-1.85547 1.69922,-5.05859 V 465.4749 h 3.59375 v 21.875 h -3.59375 v -3.35937 q -1.30859,1.99219 -3.04688,2.96875 -1.71875,0.95703 -4.0039,0.95703 -3.76953,0 -5.72266,-2.34375 -1.95312,-2.34375 -1.95312,-6.85547 z m 9.04297,-13.76953 z"
                        style="font-style:normal;font-weight:normal;font-size:medium;line-height:25px;font-family:sans-serif;letter-spacing:0px;word-spacing:0px;fill:#000000;fill-opacity:1;stroke:none;stroke-width:1px;stroke-linecap:butt;stroke-linejoin:miter;stroke-opacity:1"
                        id="path4806"
                        inkscape:connector-curvature="0"/>
                <path
                        d="m 281.30841,468.83428 q -0.60547,-0.35156 -1.32813,-0.50781 -0.70312,-0.17579 -1.5625,-0.17579 -3.04687,0 -4.6875,1.99219 -1.62109,1.97266 -1.62109,5.6836 v 11.52343 h -3.61328 v -21.875 h 3.61328 v 3.39844 q 1.13281,-1.99219 2.94922,-2.94922 1.8164,-0.97656 4.41406,-0.97656 0.37109,0 0.82031,0.0586 0.44922,0.0391 0.9961,0.13672 z"
                        style="font-style:normal;font-weight:normal;font-size:medium;line-height:25px;font-family:sans-serif;letter-spacing:0px;word-spacing:0px;fill:#000000;fill-opacity:1;stroke:none;stroke-width:1px;stroke-linecap:butt;stroke-linejoin:miter;stroke-opacity:1"
                        id="path4808"
                        inkscape:connector-curvature="0"/>
                <path
                        d="m 282.53888,465.4749 h 3.80859 l 6.83594,18.35938 6.83593,-18.35938 h 3.8086 l -8.20313,21.875 H 290.742 Z"
                        style="font-style:normal;font-weight:normal;font-size:medium;line-height:25px;font-family:sans-serif;letter-spacing:0px;word-spacing:0px;fill:#000000;fill-opacity:1;stroke:none;stroke-width:1px;stroke-linecap:butt;stroke-linejoin:miter;stroke-opacity:1"
                        id="path4810"
                        inkscape:connector-curvature="0"/>
                <path
                        d="m 327.49981,475.51397 v 1.75781 h -16.52343 q 0.23437,3.71094 2.22656,5.66406 2.01172,1.93359 5.58594,1.93359 2.07031,0 4.0039,-0.50781 1.95313,-0.50781 3.86719,-1.52344 v 3.39844 q -1.93359,0.82031 -3.96484,1.25 -2.03125,0.42969 -4.1211,0.42969 -5.23437,0 -8.30078,-3.04688 -3.04687,-3.04687 -3.04687,-8.24218 0,-5.3711 2.89062,-8.51563 2.91016,-3.16406 7.83203,-3.16406 4.41406,0 6.97266,2.85156 2.57812,2.83203 2.57812,7.71485 z m -3.59375,-1.05469 q -0.0391,-2.94922 -1.66015,-4.70703 -1.60157,-1.75782 -4.25782,-1.75782 -3.00781,0 -4.82421,1.69922 -1.79688,1.69922 -2.07032,4.78516 z"
                        style="font-style:normal;font-weight:normal;font-size:medium;line-height:25px;font-family:sans-serif;letter-spacing:0px;word-spacing:0px;fill:#000000;fill-opacity:1;stroke:none;stroke-width:1px;stroke-linecap:butt;stroke-linejoin:miter;stroke-opacity:1"
                        id="path4812"
                        inkscape:connector-curvature="0"/>
                <path
                        d="m 347.32403,484.02959 h 6.44531 V 461.7835 l -7.01171,1.40625 V 459.596 l 6.97265,-1.40625 h 3.94531 v 25.83984 h 6.44532 v 3.32031 h -16.79688 z"
                        style="font-style:normal;font-weight:normal;font-size:medium;line-height:25px;font-family:sans-serif;letter-spacing:0px;word-spacing:0px;fill:#000000;fill-opacity:1;stroke:none;stroke-width:1px;stroke-linecap:butt;stroke-linejoin:miter;stroke-opacity:1"
                        id="path4814"
                        inkscape:connector-curvature="0"/>
            </g>
            <g
                    id="g4537"
                    transform="translate(9.4506525,-9.7777538)">
                <circle
                        style="fill:#0000ff;stroke:#0000ff;stroke-width:3;stroke-miterlimit:4;stroke-dasharray:none"
                        id="path4531"
                        cx="127.48471"
                        cy="482.56711"
                        r="12.093567"/>
                <path
                        style="fill:#0000ff;fill-rule:evenodd;stroke:#0000ff;stroke-width:3.77952766;stroke-linecap:butt;stroke-linejoin:miter;stroke-miterlimit:4;stroke-dasharray:none;stroke-opacity:1"
                        d="M 88.888216,482.56711 H 166.08121"
                        id="path4533"
                        inkscape:connector-curvature="0"/>
            </g>
            <g
                    aria-label="Curve 2
"
                    transform="translate(118.87286,451.07857)"
                    style="font-style:normal;font-weight:normal;font-size:40px;line-height:25px;font-family:sans-serif;letter-spacing:0px;word-spacing:0px;fill:#000000;fill-opacity:1;stroke:none;stroke-width:1px;stroke-linecap:butt;stroke-linejoin:miter;stroke-opacity:1"
                    id="flowRoot4557">
                <path
                        d="m 118.39258,59.275391 v 4.160156 q -1.99219,-1.855469 -4.25781,-2.773438 -2.2461,-0.917968 -4.78516,-0.917968 -5,0 -7.65625,3.066406 -2.656251,3.046875 -2.656251,8.828125 0,5.761719 2.656251,8.828125 2.65625,3.046875 7.65625,3.046875 2.53906,0 4.78516,-0.917969 2.26562,-0.917969 4.25781,-2.773437 v 4.121093 q -2.07031,1.40625 -4.39453,2.109375 -2.30469,0.703125 -4.88282,0.703125 -6.62109,0 -10.429683,-4.042968 -3.808594,-4.0625 -3.808594,-11.074219 0,-7.03125 3.808594,-11.074219 3.808593,-4.0625 10.429683,-4.0625 2.61719,0 4.92188,0.703125 2.32422,0.683594 4.35547,2.070313 z"
                        style=""
                        id="path4817"/>
                <path
                        d="M 123.99805,77.556641 V 64.314453 h 3.59375 v 13.105469 q 0,3.105469 1.21093,4.667969 1.21094,1.542968 3.63282,1.542968 2.91015,0 4.58984,-1.855468 1.69922,-1.855469 1.69922,-5.058594 V 64.314453 h 3.59375 v 21.875 h -3.59375 v -3.359375 q -1.30859,1.992188 -3.04688,2.96875 -1.71875,0.957031 -4.0039,0.957031 -3.76953,0 -5.72266,-2.34375 -1.95312,-2.34375 -1.95312,-6.855468 z m 9.04297,-13.769532 z"
                        style=""
                        id="path4819"/>
                <path
                        d="m 162.43555,67.673828 q -0.60547,-0.351562 -1.32813,-0.507812 -0.70312,-0.175782 -1.5625,-0.175782 -3.04687,0 -4.6875,1.992188 -1.62109,1.972656 -1.62109,5.683594 v 11.523437 h -3.61328 v -21.875 h 3.61328 v 3.398438 q 1.13281,-1.992188 2.94922,-2.949219 1.8164,-0.976563 4.41406,-0.976563 0.37109,0 0.82031,0.05859 0.44922,0.03906 0.9961,0.136719 z"
                        style=""
                        id="path4821"/>
                <path
                        d="m 163.66602,64.314453 h 3.80859 l 6.83594,18.359375 6.83593,-18.359375 h 3.8086 l -8.20313,21.875 h -4.88281 z"
                        style=""
                        id="path4823"/>
                <path
                        d="m 208.62695,74.353516 v 1.757812 h -16.52343 q 0.23437,3.710938 2.22656,5.664063 2.01172,1.933593 5.58594,1.933593 2.07031,0 4.0039,-0.507812 1.95313,-0.507813 3.86719,-1.523438 v 3.398438 q -1.93359,0.820312 -3.96484,1.25 -2.03125,0.429687 -4.1211,0.429687 -5.23437,0 -8.30078,-3.046875 -3.04687,-3.046875 -3.04687,-8.242187 0,-5.371094 2.89062,-8.515625 2.91016,-3.164063 7.83203,-3.164063 4.41406,0 6.97266,2.851563 2.57812,2.832031 2.57812,7.714844 z m -3.59375,-1.054688 q -0.0391,-2.949219 -1.66015,-4.707031 -1.60157,-1.757813 -4.25782,-1.757813 -3.00781,0 -4.82421,1.699219 -1.79688,1.699219 -2.07032,4.785156 z"
                        style=""
                        id="path4825"/>
                <path
                        d="m 231.16602,82.869141 h 13.76953 v 3.320312 h -18.51563 v -3.320312 q 2.2461,-2.324219 6.11328,-6.230469 3.88672,-3.925781 4.88282,-5.058594 1.89453,-2.128906 2.63671,-3.59375 0.76172,-1.484375 0.76172,-2.910156 0,-2.324219 -1.64062,-3.789063 -1.6211,-1.464843 -4.23828,-1.464843 -1.85547,0 -3.92578,0.644531 -2.05079,0.644531 -4.39454,1.953125 v -3.984375 q 2.38282,-0.957031 4.45313,-1.445313 2.07031,-0.488281 3.78906,-0.488281 4.53125,0 7.22656,2.265625 2.69532,2.265625 2.69532,6.054688 0,1.796875 -0.6836,3.417968 -0.66406,1.601563 -2.4414,3.789063 -0.48828,0.566406 -3.10547,3.28125 -2.61719,2.695312 -7.38281,7.558594 z"
                        style=""
                        id="path4827"/>
            </g>
            <g
                    id="g4563"
                    style="fill:#008000;stroke:#008000"
                    transform="translate(9.4506525,40.140375)">
                <circle
                        r="12.093567"
                        cy="482.56711"
                        cx="127.48471"
                        id="circle4559"
                        style="fill:#008000;stroke:#008000;stroke-width:3;stroke-miterlimit:4;stroke-dasharray:none"/>
                <path
                        inkscape:connector-curvature="0"
                        id="path4561"
                        d="M 88.888216,482.56711 H 166.08121"
                        style="fill:#008000;fill-rule:evenodd;stroke:#008000;stroke-width:3.77952766;stroke-linecap:butt;stroke-linejoin:miter;stroke-miterlimit:4;stroke-dasharray:none;stroke-opacity:1"/>
            </g>
            <g
                    aria-label="Curve 3
"
                    transform="translate(118.87286,502.54057)"
                    style="font-style:normal;font-weight:normal;font-size:40px;line-height:25px;font-family:sans-serif;letter-spacing:0px;word-spacing:0px;fill:#000000;fill-opacity:1;stroke:none;stroke-width:1px;stroke-linecap:butt;stroke-linejoin:miter;stroke-opacity:1"
                    id="flowRoot4575">
                <path
                        d="m 118.39258,59.275391 v 4.160156 q -1.99219,-1.855469 -4.25781,-2.773438 -2.2461,-0.917968 -4.78516,-0.917968 -5,0 -7.65625,3.066406 -2.656251,3.046875 -2.656251,8.828125 0,5.761719 2.656251,8.828125 2.65625,3.046875 7.65625,3.046875 2.53906,0 4.78516,-0.917969 2.26562,-0.917969 4.25781,-2.773437 v 4.121093 q -2.07031,1.40625 -4.39453,2.109375 -2.30469,0.703125 -4.88282,0.703125 -6.62109,0 -10.429683,-4.042968 -3.808594,-4.0625 -3.808594,-11.074219 0,-7.03125 3.808594,-11.074219 3.808593,-4.0625 10.429683,-4.0625 2.61719,0 4.92188,0.703125 2.32422,0.683594 4.35547,2.070313 z"
                        style=""
                        id="path4830"/>
                <path
                        d="M 123.99805,77.556641 V 64.314453 h 3.59375 v 13.105469 q 0,3.105469 1.21093,4.667969 1.21094,1.542968 3.63282,1.542968 2.91015,0 4.58984,-1.855468 1.69922,-1.855469 1.69922,-5.058594 V 64.314453 h 3.59375 v 21.875 h -3.59375 v -3.359375 q -1.30859,1.992188 -3.04688,2.96875 -1.71875,0.957031 -4.0039,0.957031 -3.76953,0 -5.72266,-2.34375 -1.95312,-2.34375 -1.95312,-6.855468 z m 9.04297,-13.769532 z"
                        style=""
                        id="path4832"/>
                <path
                        d="m 162.43555,67.673828 q -0.60547,-0.351562 -1.32813,-0.507812 -0.70312,-0.175782 -1.5625,-0.175782 -3.04687,0 -4.6875,1.992188 -1.62109,1.972656 -1.62109,5.683594 v 11.523437 h -3.61328 v -21.875 h 3.61328 v 3.398438 q 1.13281,-1.992188 2.94922,-2.949219 1.8164,-0.976563 4.41406,-0.976563 0.37109,0 0.82031,0.05859 0.44922,0.03906 0.9961,0.136719 z"
                        style=""
                        id="path4834"/>
                <path
                        d="m 163.66602,64.314453 h 3.80859 l 6.83594,18.359375 6.83593,-18.359375 h 3.8086 l -8.20313,21.875 h -4.88281 z"
                        style=""
                        id="path4836"/>
                <path
                        d="m 208.62695,74.353516 v 1.757812 h -16.52343 q 0.23437,3.710938 2.22656,5.664063 2.01172,1.933593 5.58594,1.933593 2.07031,0 4.0039,-0.507812 1.95313,-0.507813 3.86719,-1.523438 v 3.398438 q -1.93359,0.820312 -3.96484,1.25 -2.03125,0.429687 -4.1211,0.429687 -5.23437,0 -8.30078,-3.046875 -3.04687,-3.046875 -3.04687,-8.242187 0,-5.371094 2.89062,-8.515625 2.91016,-3.164063 7.83203,-3.164063 4.41406,0 6.97266,2.851563 2.57812,2.832031 2.57812,7.714844 z m -3.59375,-1.054688 q -0.0391,-2.949219 -1.66015,-4.707031 -1.60157,-1.757813 -4.25782,-1.757813 -3.00781,0 -4.82421,1.699219 -1.79688,1.699219 -2.07032,4.785156 z"
                        style=""
                        id="path4838"/>
                <path
                        d="m 239.7207,70.466797 q 2.83203,0.605469 4.41407,2.519531 1.60156,1.914063 1.60156,4.726563 0,4.316406 -2.96875,6.679687 -2.96875,2.363281 -8.4375,2.363281 -1.83594,0 -3.78906,-0.371093 -1.9336,-0.351563 -4.00391,-1.074219 v -3.808594 q 1.64062,0.957031 3.59375,1.445313 1.95312,0.488281 4.08203,0.488281 3.71094,0 5.64453,-1.464844 1.95313,-1.464844 1.95313,-4.257812 0,-2.578125 -1.81641,-4.023438 -1.79687,-1.464844 -5.01953,-1.464844 h -3.39844 v -3.242187 h 3.55469 q 2.91016,0 4.45312,-1.152344 1.54297,-1.171875 1.54297,-3.359375 0,-2.246094 -1.60156,-3.4375 -1.58203,-1.210937 -4.55078,-1.210937 -1.62109,0 -3.47656,0.351562 -1.85547,0.351563 -4.08203,1.09375 v -3.515625 q 2.24609,-0.625 4.19921,-0.9375 1.97266,-0.3125 3.71094,-0.3125 4.49219,0 7.10938,2.050781 2.61718,2.03125 2.61718,5.507813 0,2.421875 -1.38671,4.101562 -1.38672,1.660157 -3.94532,2.304688 z"
                        style=""
                        id="path4840"/>
            </g>
            <g
                    id="g4581"
                    style="fill:#ff0000;stroke:#ff0000"
                    transform="translate(9.4506525,91.602366)">
                <circle
                        style="fill:#ff0000;stroke:#ff0000;stroke-width:3;stroke-miterlimit:4;stroke-dasharray:none"
                        id="circle4577"
                        cx="127.48471"
                        cy="482.56711"
                        r="12.093567"/>
                <path
                        style="fill:#ff0000;fill-rule:evenodd;stroke:#ff0000;stroke-width:3.77952766;stroke-linecap:butt;stroke-linejoin:miter;stroke-miterlimit:4;stroke-dasharray:none;stroke-opacity:1"
                        d="M 88.888216,482.56711 H 166.08121"
                        id="path4579"
                        inkscape:connector-curvature="0"/>
            </g>
            <g
                    aria-label="Curve 4
"
                    transform="translate(118.87286,553.48794)"
                    style="font-style:normal;font-weight:normal;font-size:40px;line-height:25px;font-family:sans-serif;letter-spacing:0px;word-spacing:0px;fill:#000000;fill-opacity:1;stroke:none;stroke-width:1px;stroke-linecap:butt;stroke-linejoin:miter;stroke-opacity:1"
                    id="flowRoot4593">
                <path
                        d="m 118.39258,59.275391 v 4.160156 q -1.99219,-1.855469 -4.25781,-2.773438 -2.2461,-0.917968 -4.78516,-0.917968 -5,0 -7.65625,3.066406 -2.656251,3.046875 -2.656251,8.828125 0,5.761719 2.656251,8.828125 2.65625,3.046875 7.65625,3.046875 2.53906,0 4.78516,-0.917969 2.26562,-0.917969 4.25781,-2.773437 v 4.121093 q -2.07031,1.40625 -4.39453,2.109375 -2.30469,0.703125 -4.88282,0.703125 -6.62109,0 -10.429683,-4.042968 -3.808594,-4.0625 -3.808594,-11.074219 0,-7.03125 3.808594,-11.074219 3.808593,-4.0625 10.429683,-4.0625 2.61719,0 4.92188,0.703125 2.32422,0.683594 4.35547,2.070313 z"
                        style=""
                        id="path4843"/>
                <path
                        d="M 123.99805,77.556641 V 64.314453 h 3.59375 v 13.105469 q 0,3.105469 1.21093,4.667969 1.21094,1.542968 3.63282,1.542968 2.91015,0 4.58984,-1.855468 1.69922,-1.855469 1.69922,-5.058594 V 64.314453 h 3.59375 v 21.875 h -3.59375 v -3.359375 q -1.30859,1.992188 -3.04688,2.96875 -1.71875,0.957031 -4.0039,0.957031 -3.76953,0 -5.72266,-2.34375 -1.95312,-2.34375 -1.95312,-6.855468 z m 9.04297,-13.769532 z"
                        style=""
                        id="path4845"/>
                <path
                        d="m 162.43555,67.673828 q -0.60547,-0.351562 -1.32813,-0.507812 -0.70312,-0.175782 -1.5625,-0.175782 -3.04687,0 -4.6875,1.992188 -1.62109,1.972656 -1.62109,5.683594 v 11.523437 h -3.61328 v -21.875 h 3.61328 v 3.398438 q 1.13281,-1.992188 2.94922,-2.949219 1.8164,-0.976563 4.41406,-0.976563 0.37109,0 0.82031,0.05859 0.44922,0.03906 0.9961,0.136719 z"
                        style=""
                        id="path4847"/>
                <path
                        d="m 163.66602,64.314453 h 3.80859 l 6.83594,18.359375 6.83593,-18.359375 h 3.8086 l -8.20313,21.875 h -4.88281 z"
                        style=""
                        id="path4849"/>
                <path
                        d="m 208.62695,74.353516 v 1.757812 h -16.52343 q 0.23437,3.710938 2.22656,5.664063 2.01172,1.933593 5.58594,1.933593 2.07031,0 4.0039,-0.507812 1.95313,-0.507813 3.86719,-1.523438 v 3.398438 q -1.93359,0.820312 -3.96484,1.25 -2.03125,0.429687 -4.1211,0.429687 -5.23437,0 -8.30078,-3.046875 -3.04687,-3.046875 -3.04687,-8.242187 0,-5.371094 2.89062,-8.515625 2.91016,-3.164063 7.83203,-3.164063 4.41406,0 6.97266,2.851563 2.57812,2.832031 2.57812,7.714844 z m -3.59375,-1.054688 q -0.0391,-2.949219 -1.66015,-4.707031 -1.60157,-1.757813 -4.25782,-1.757813 -3.00781,0 -4.82421,1.699219 -1.79688,1.699219 -2.07032,4.785156 z"
                        style=""
                        id="path4851"/>
                <path
                        d="m 238.60742,60.466797 -9.96094,15.566406 h 9.96094 z m -1.03515,-3.4375 h 4.96093 v 19.003906 h 4.16016 v 3.28125 h -4.16016 v 6.875 h -3.92578 v -6.875 h -13.16406 v -3.808594 z"
                        style=""
                        id="path4853"/>
            </g>
            <g
                    id="g4599"
                    style="fill:#00ffff;stroke:#00ffff"
                    transform="translate(9.4506525,142.54974)">
                <circle
                        r="12.093567"
                        cy="482.56711"
                        cx="127.48471"
                        id="circle4595"
                        style="fill:#00ffff;stroke:#00ffff;stroke-width:3;stroke-miterlimit:4;stroke-dasharray:none"/>
                <path
                        inkscape:connector-curvature="0"
                        id="path4597"
                        d="M 88.888216,482.56711 H 166.08121"
                        style="fill:#00ffff;fill-rule:evenodd;stroke:#00ffff;stroke-width:3.77952766;stroke-linecap:butt;stroke-linejoin:miter;stroke-miterlimit:4;stroke-dasharray:none;stroke-opacity:1"/>
            </g>
            <g
                    aria-label="Curve 5
"
                    transform="translate(118.87286,599.80373)"
                    style="font-style:normal;font-weight:normal;font-size:40px;line-height:25px;font-family:sans-serif;letter-spacing:0px;word-spacing:0px;fill:#000000;fill-opacity:1;stroke:none;stroke-width:1px;stroke-linecap:butt;stroke-linejoin:miter;stroke-opacity:1"
                    id="flowRoot4611">
                <path
                        d="m 118.39258,59.275391 v 4.160156 q -1.99219,-1.855469 -4.25781,-2.773438 -2.2461,-0.917968 -4.78516,-0.917968 -5,0 -7.65625,3.066406 -2.656251,3.046875 -2.656251,8.828125 0,5.761719 2.656251,8.828125 2.65625,3.046875 7.65625,3.046875 2.53906,0 4.78516,-0.917969 2.26562,-0.917969 4.25781,-2.773437 v 4.121093 q -2.07031,1.40625 -4.39453,2.109375 -2.30469,0.703125 -4.88282,0.703125 -6.62109,0 -10.429683,-4.042968 -3.808594,-4.0625 -3.808594,-11.074219 0,-7.03125 3.808594,-11.074219 3.808593,-4.0625 10.429683,-4.0625 2.61719,0 4.92188,0.703125 2.32422,0.683594 4.35547,2.070313 z"
                        style=""
                        id="path4856"/>
                <path
                        d="M 123.99805,77.556641 V 64.314453 h 3.59375 v 13.105469 q 0,3.105469 1.21093,4.667969 1.21094,1.542968 3.63282,1.542968 2.91015,0 4.58984,-1.855468 1.69922,-1.855469 1.69922,-5.058594 V 64.314453 h 3.59375 v 21.875 h -3.59375 v -3.359375 q -1.30859,1.992188 -3.04688,2.96875 -1.71875,0.957031 -4.0039,0.957031 -3.76953,0 -5.72266,-2.34375 -1.95312,-2.34375 -1.95312,-6.855468 z m 9.04297,-13.769532 z"
                        style=""
                        id="path4858"/>
                <path
                        d="m 162.43555,67.673828 q -0.60547,-0.351562 -1.32813,-0.507812 -0.70312,-0.175782 -1.5625,-0.175782 -3.04687,0 -4.6875,1.992188 -1.62109,1.972656 -1.62109,5.683594 v 11.523437 h -3.61328 v -21.875 h 3.61328 v 3.398438 q 1.13281,-1.992188 2.94922,-2.949219 1.8164,-0.976563 4.41406,-0.976563 0.37109,0 0.82031,0.05859 0.44922,0.03906 0.9961,0.136719 z"
                        style=""
                        id="path4860"/>
                <path
                        d="m 163.66602,64.314453 h 3.80859 l 6.83594,18.359375 6.83593,-18.359375 h 3.8086 l -8.20313,21.875 h -4.88281 z"
                        style=""
                        id="path4862"/>
                <path
                        d="m 208.62695,74.353516 v 1.757812 h -16.52343 q 0.23437,3.710938 2.22656,5.664063 2.01172,1.933593 5.58594,1.933593 2.07031,0 4.0039,-0.507812 1.95313,-0.507813 3.86719,-1.523438 v 3.398438 q -1.93359,0.820312 -3.96484,1.25 -2.03125,0.429687 -4.1211,0.429687 -5.23437,0 -8.30078,-3.046875 -3.04687,-3.046875 -3.04687,-8.242187 0,-5.371094 2.89062,-8.515625 2.91016,-3.164063 7.83203,-3.164063 4.41406,0 6.97266,2.851563 2.57812,2.832031 2.57812,7.714844 z m -3.59375,-1.054688 q -0.0391,-2.949219 -1.66015,-4.707031 -1.60157,-1.757813 -4.25782,-1.757813 -3.00781,0 -4.82421,1.699219 -1.79688,1.699219 -2.07032,4.785156 z"
                        style=""
                        id="path4864"/>
                <path
                        d="m 227.80664,57.029297 h 15.48828 v 3.320312 h -11.875 v 7.148438 q 0.85938,-0.292969 1.71875,-0.429688 0.85938,-0.15625 1.71875,-0.15625 4.88281,0 7.73438,2.675782 2.85156,2.675781 2.85156,7.246093 0,4.707032 -2.92969,7.324219 -2.92969,2.597656 -8.26172,2.597656 -1.83593,0 -3.75,-0.3125 -1.89453,-0.3125 -3.92578,-0.9375 v -3.964843 q 1.75781,0.957031 3.63281,1.425781 1.875,0.46875 3.96485,0.46875 3.3789,0 5.35156,-1.777344 1.97266,-1.777344 1.97266,-4.824219 0,-3.046875 -1.97266,-4.824218 -1.97266,-1.777344 -5.35156,-1.777344 -1.58203,0 -3.16406,0.351562 -1.5625,0.351563 -3.20313,1.09375 z"
                        style=""
                        id="path4866"/>
            </g>
            <g
                    id="g4617"
                    style="fill:#ff00ff;stroke:#ff00ff"
                    transform="translate(9.4506525,188.86553)">
                <circle
                        style="fill:#ff00ff;stroke:#ff00ff;stroke-width:3;stroke-miterlimit:4;stroke-dasharray:none"
                        id="circle4613"
                        cx="127.48471"
                        cy="482.56711"
                        r="12.093567"/>
                <path
                        style="fill:#ff00ff;fill-rule:evenodd;stroke:#ff00ff;stroke-width:3.77952766;stroke-linecap:butt;stroke-linejoin:miter;stroke-miterlimit:4;stroke-dasharray:none;stroke-opacity:1"
                        d="M 88.888216,482.56711 H 166.08121"
                        id="path4615"
                        inkscape:connector-curvature="0"/>
            </g>
        </g>
    </g>
</svg>
