<?xml version="1.0" encoding="UTF-8" standalone="no"?>
<!-- Created with Inkscape (http://www.inkscape.org/) -->

<svg
        xmlns:dc="http://purl.org/dc/elements/1.1/"
        xmlns:cc="http://creativecommons.org/ns#"
        xmlns:rdf="http://www.w3.org/1999/02/22-rdf-syntax-ns#"
        xmlns="http://www.w3.org/2000/svg"
        xmlns:sodipodi="http://sodipodi.sourceforge.net/DTD/sodipodi-0.dtd"
        xmlns:inkscape="http://www.inkscape.org/namespaces/inkscape"
        width="330"
        height="330"
        id="svg2"
        version="1.1"
        inkscape:version="0.92.2 5c3e80d, 2017-08-06"
        sodipodi:docname="normal_orientation.svg"
        inkscape:export-filename="/home/labuser/workspace/SAXSCtrl/saxsctrl/widgets/fitpeak.png"
        inkscape:export-xdpi="69.82"
        inkscape:export-ydpi="69.82">
  <defs
     id="defs4">
    <marker
       inkscape:stockid="Arrow1Lstart"
       orient="auto"
       refY="0"
       refX="0"
       id="Arrow1Lstart"
       style="overflow:visible">
      <path
         id="path3761"
         d="M 0,0 5,-5 -12.5,0 5,5 0,0 z"
         style="fill-rule:evenodd;stroke:#000000;stroke-width:1pt"
         transform="matrix(0.8,0,0,0.8,10,0)"
         inkscape:connector-curvature="0" />
    </marker>
    <marker
       inkscape:stockid="Arrow1Lend"
       orient="auto"
       refY="0"
       refX="0"
       id="Arrow1Lend"
       style="overflow:visible">
      <path
         id="path3764"
         d="M 0,0 5,-5 -12.5,0 5,5 0,0 z"
         style="fill-rule:evenodd;stroke:#000000;stroke-width:1pt"
         transform="matrix(-0.8,0,0,-0.8,-10,0)"
         inkscape:connector-curvature="0" />
    </marker>
  </defs>
  <sodipodi:namedview
     id="base"
     pagecolor="#ffffff"
     bordercolor="#666666"
     borderopacity="1.0"
     inkscape:pageopacity="1"
     inkscape:pageshadow="2"
     inkscape:zoom="1.2650794"
     inkscape:cx="108.42889"
     inkscape:cy="187.08724"
     inkscape:document-units="px"
     inkscape:current-layer="layer1"
     showgrid="false"
     fit-margin-top="0"
     fit-margin-left="0"
     fit-margin-right="0"
     fit-margin-bottom="0"
     inkscape:window-width="1280"
     inkscape:window-height="949"
     inkscape:window-x="0"
     inkscape:window-y="26"
     inkscape:window-maximized="1" />
  <metadata
     id="metadata7">
    <rdf:RDF>
      <cc:Work
         rdf:about="">
        <dc:format>image/svg+xml</dc:format>
        <dc:type
           rdf:resource="http://purl.org/dc/dcmitype/StillImage" />
        <dc:title></dc:title>
      </cc:Work>
    </rdf:RDF>
  </metadata>
  <g
     inkscape:label="Layer 1"
     inkscape:groupmode="layer"
     id="layer1"
     transform="translate(-52.214286,-370.1479)">
    <path
       style="fill:none;stroke:#000000;stroke-width:3;stroke-linecap:butt;stroke-linejoin:miter;stroke-miterlimit:4;stroke-opacity:1;stroke-dasharray:none;marker-start:url(#Arrow1Lstart);marker-end:url(#Arrow1Lend)"
       d="m 65.714286,386.6479 0,300 311.238574,0"
       id="path3755"
       inkscape:connector-curvature="0"
       sodipodi:nodetypes="ccc" />
    <circle
       id="path4582"
       style="fill:#000000;fill-opacity:1;stroke:#000000;stroke-width:3;stroke-miterlimit:4;stroke-dasharray:none;stroke-opacity:1"
       cx="256.25562"
       cy="608.95294"
       r="11.428572" />
    <path
       sodipodi:type="arc"
       style="fill:#000000;fill-opacity:1;stroke:#000000;stroke-width:3;stroke-miterlimit:4;stroke-opacity:1;stroke-dasharray:none"
       id="path4584"
       sodipodi:cx="194.28572"
       sodipodi:cy="266.64789"
       sodipodi:rx="11.428572"
       sodipodi:ry="11.428572"
       d="m 205.71429,266.64789 a 11.428572,11.428572 0 0 1 -11.42857,11.42857 11.428572,11.428572 0 0 1 -11.42857,-11.42857 11.428572,11.428572 0 0 1 11.42857,-11.42857 11.428572,11.428572 0 0 1 11.42857,11.42857 z"
       transform="translate(-60,302.85714)" />
    <circle
       id="path4588"
       style="fill:#000000;fill-opacity:1;stroke:#000000;stroke-width:3;stroke-miterlimit:4;stroke-dasharray:none;stroke-opacity:1"
       cx="153.55261"
       cy="457.82013"
       r="11.428572" />
    <circle
       style="fill:#000000;fill-opacity:1;stroke:#000000;stroke-width:3;stroke-miterlimit:4;stroke-dasharray:none;stroke-opacity:1"
       id="path4590"
       cx="210.58075"
       cy="514.69415"
       r="11.428572" />
    <path
       transform="translate(30.571428,132.85714)"
       d="m 205.71429,266.64789 a 11.428572,11.428572 0 0 1 -11.42857,11.42857 11.428572,11.428572 0 0 1 -11.42857,-11.42857 11.428572,11.428572 0 0 1 11.42857,-11.42857 11.428572,11.428572 0 0 1 11.42857,11.42857 z"
       sodipodi:ry="11.428572"
       sodipodi:rx="11.428572"
       sodipodi:cy="266.64789"
       sodipodi:cx="194.28572"
       id="path4592"
       style="fill:#000000;fill-opacity:1;stroke:#000000;stroke-width:3;stroke-miterlimit:4;stroke-opacity:1;stroke-dasharray:none"
       sodipodi:type="arc" />
    <path
       sodipodi:type="arc"
       style="fill:#000000;fill-opacity:1;stroke:#000000;stroke-width:3;stroke-miterlimit:4;stroke-opacity:1;stroke-dasharray:none"
       id="path4602"
       sodipodi:cx="194.28572"
       sodipodi:cy="266.64789"
       sodipodi:rx="11.428572"
       sodipodi:ry="11.428572"
       d="m 205.71429,266.64789 a 11.428572,11.428572 0 0 1 -11.42857,11.42857 11.428572,11.428572 0 0 1 -11.42857,-11.42857 11.428572,11.428572 0 0 1 11.42857,-11.42857 11.428572,11.428572 0 0 1 11.42857,11.42857 z"
       transform="translate(82.857139,220)" />
    <path
       transform="translate(82.857139,220)"
       d="m 205.71429,266.64789 a 11.428572,11.428572 0 0 1 -11.42857,11.42857 11.428572,11.428572 0 0 1 -11.42857,-11.42857 11.428572,11.428572 0 0 1 11.42857,-11.42857 11.428572,11.428572 0 0 1 11.42857,11.42857 z"
       sodipodi:ry="11.428572"
       sodipodi:rx="11.428572"
       sodipodi:cy="266.64789"
       sodipodi:cx="194.28572"
       id="path4604"
       style="fill:#000000;fill-opacity:1;stroke:#000000;stroke-width:3;stroke-miterlimit:4;stroke-opacity:1;stroke-dasharray:none"
       sodipodi:type="arc" />
    <path
       sodipodi:type="arc"
       style="fill:#000000;fill-opacity:1;stroke:#000000;stroke-width:3;stroke-miterlimit:4;stroke-opacity:1;stroke-dasharray:none"
       id="path4606"
       sodipodi:cx="194.28572"
       sodipodi:cy="266.64789"
       sodipodi:rx="11.428572"
       sodipodi:ry="11.428572"
       d="m 205.71429,266.64789 a 11.428572,11.428572 0 0 1 -11.42857,11.42857 11.428572,11.428572 0 0 1 -11.42857,-11.42857 11.428572,11.428572 0 0 1 11.42857,-11.42857 11.428572,11.428572 0 0 1 11.42857,11.42857 z"
       transform="translate(122.85714,308.57143)" />
    <path
       transform="translate(131.42857,385.71429)"
       d="m 205.71429,266.64789 a 11.428572,11.428572 0 0 1 -11.42857,11.42857 11.428572,11.428572 0 0 1 -11.42857,-11.42857 11.428572,11.428572 0 0 1 11.42857,-11.42857 11.428572,11.428572 0 0 1 11.42857,11.42857 z"
       sodipodi:ry="11.428572"
       sodipodi:rx="11.428572"
       sodipodi:cy="266.64789"
       sodipodi:cx="194.28572"
       id="path4608"
       style="fill:#000000;fill-opacity:1;stroke:#000000;stroke-width:3;stroke-miterlimit:4;stroke-opacity:1;stroke-dasharray:none"
       sodipodi:type="arc" />
    <circle
       style="fill:#000000;fill-opacity:1;stroke:#000000;stroke-width:3;stroke-miterlimit:4;stroke-dasharray:none;stroke-opacity:1"
       id="path4610"
       cx="108.09823"
       cy="508.86871"
       r="11.428572" />
    <circle
       id="path4612"
       style="fill:#000000;fill-opacity:1;stroke:#000000;stroke-width:3;stroke-miterlimit:4;stroke-dasharray:none;stroke-opacity:1"
       cx="176.61229"
       cy="638.01013"
       r="11.428572" />
  </g>
</svg>
