<?xml version="1.0" encoding="UTF-8" standalone="no"?>
<!-- Created with Inkscape (http://www.inkscape.org/) -->

<svg
   xmlns:dc="http://purl.org/dc/elements/1.1/"
   xmlns:cc="http://creativecommons.org/ns#"
   xmlns:rdf="http://www.w3.org/1999/02/22-rdf-syntax-ns#"
   xmlns:svg="http://www.w3.org/2000/svg"
   xmlns="http://www.w3.org/2000/svg"
   xmlns:sodipodi="http://sodipodi.sourceforge.net/DTD/sodipodi-0.dtd"
   xmlns:inkscape="http://www.inkscape.org/namespaces/inkscape"
   width="42mm"
   height="42mm"
   viewBox="0 0 148.8189 148.8189"
   id="svg2"
   version="1.1"
   inkscape:version="0.91 r13725"
   sodipodi:docname="flipmask.svg">
  <defs
     id="defs4" />
  <sodipodi:namedview
     id="base"
     pagecolor="#ffffff"
     bordercolor="#666666"
     borderopacity="1.0"
     inkscape:pageopacity="0.0"
     inkscape:pageshadow="2"
     inkscape:zoom="5.6"
     inkscape:cx="108.08209"
     inkscape:cy="86.79488"
     inkscape:document-units="px"
     inkscape:current-layer="layer1"
     showgrid="true"
     inkscape:snap-bbox="true"
     inkscape:object-paths="false"
     inkscape:snap-intersection-paths="true"
     inkscape:object-nodes="true"
     inkscape:snap-grids="true"
     inkscape:snap-smooth-nodes="true"
     inkscape:window-width="1920"
     inkscape:window-height="976"
     inkscape:window-x="0"
     inkscape:window-y="31"
     inkscape:window-maximized="1"
     fit-margin-top="0"
     fit-margin-left="0"
     fit-margin-right="0"
     fit-margin-bottom="0">
    <inkscape:grid
       type="xygrid"
       id="grid4158"
       originx="-111.06657"
       originy="-720.47282" />
  </sodipodi:namedview>
  <metadata
     id="metadata7">
    <rdf:RDF>
      <cc:Work
         rdf:about="">
        <dc:format>image/svg+xml</dc:format>
        <dc:type
           rdf:resource="http://purl.org/dc/dcmitype/StillImage" />
        <dc:title></dc:title>
      </cc:Work>
    </rdf:RDF>
  </metadata>
  <g
     inkscape:label="Layer 1"
     inkscape:groupmode="layer"
     id="layer1"
     transform="translate(-111.06657,-183.07051)">
    <path
       id="path4172"
       style="fill:#000000;fill-opacity:1;fill-rule:evenodd;stroke:#ffffff;stroke-width:1px;stroke-linecap:butt;stroke-linejoin:miter;stroke-opacity:1"
       d="m 155.34174,307.96635 c 25,0 55,-30 38.88832,-104.44416 -2.07751,-9.59913 -25.79392,-10.55584 -38.88832,-10.55584 -13.0944,0 -36.81081,0.95671 -38.88832,10.55584 -16.11168,74.44416 13.88832,104.44416 38.88832,104.44416 z"
       inkscape:connector-curvature="0"
       sodipodi:nodetypes="zsssz" />
    <path
       id="path4164"
       style="fill:#ffffff;fill-opacity:1;fill-rule:evenodd;stroke:#000000;stroke-width:1px;stroke-linecap:butt;stroke-linejoin:miter;stroke-opacity:1"
       d="m 135.34174,227.40367 c -5.27046,0 -14.62638,-0.2572 -15,5 -0.26419,3.7174 6.29547,4.59335 10,5 6.83081,0.74983 19.73628,1.86678 20,-5 0.20226,-5.26658 -9.72954,-5 -15,-5 z"
       inkscape:connector-curvature="0"
       sodipodi:nodetypes="sssss" />
    <path
       sodipodi:nodetypes="sssss"
       inkscape:connector-curvature="0"
       d="m 175.34174,227.40367 c 5.27046,0 14.62638,-0.2572 15,5 0.26419,3.7174 -6.29547,4.59335 -10,5 -6.83081,0.74983 -19.73628,1.86678 -20,-5 -0.20226,-5.26658 9.72954,-5 15,-5 z"
       style="fill:#ffffff;fill-opacity:1;fill-rule:evenodd;stroke:#000000;stroke-width:1px;stroke-linecap:butt;stroke-linejoin:miter;stroke-opacity:1"
       id="path4174" />
    <path
       id="path4176"
       style="fill:#ffffff;fill-opacity:1;fill-rule:evenodd;stroke:#ffffff;stroke-width:1px;stroke-linecap:butt;stroke-linejoin:miter;stroke-opacity:1"
       d="m 180.34174,267.96635 c -5,0 -10,5 -25,5 -15,0 -20,-5 -25,-5 -5,0 16.02473,15 25,15 8.97527,0 30,-15 25,-15 z"
       inkscape:connector-curvature="0"
       sodipodi:nodetypes="szzss" />
    <path
       id="path4172-3"
       style="fill:#ffffff;fill-opacity:1;fill-rule:evenodd;stroke:#000000;stroke-width:1px;stroke-linecap:butt;stroke-linejoin:miter;stroke-opacity:1"
       d="m 172.84175,317.55927 c 21.65063,12.5 62.63139,1.51924 85.90035,-71.00713 3.00039,-9.35185 -17.06028,-22.03858 -28.40036,-28.58578 -11.34008,-6.5472 -32.35745,-17.57688 -38.95619,-10.30254 -51.1752,56.41469 -40.19444,97.39545 -18.5438,109.89545 z"
       inkscape:connector-curvature="0"
       sodipodi:nodetypes="zsssz" />
    <path
       id="path4164-0"
       style="fill:#000000;fill-opacity:1;fill-rule:evenodd;stroke:#ffffff;stroke-width:1px;stroke-linecap:butt;stroke-linejoin:miter;stroke-opacity:1"
       d="m 190.52123,246.9375 c -4.56435,-2.63523 -12.79541,-7.09045 -10.49038,-11.83013 1.62991,-3.35145 7.74871,-0.83022 11.16026,0.66988 6.29057,2.76602 18.02551,8.25145 14.8205,14.33012 -2.45812,4.66212 -10.92602,-0.53464 -15.49038,-3.16987 z"
       inkscape:connector-curvature="0"
       sodipodi:nodetypes="sssss" />
    <path
       sodipodi:nodetypes="sssss"
       inkscape:connector-curvature="0"
       d="m 225.16225,266.9375 c 4.56435,2.63523 12.53822,7.53593 15.49038,3.16987 2.0875,-3.08726 -3.15536,-7.12569 -6.16025,-9.33012 -5.54074,-4.06479 -16.15873,-11.48483 -19.82051,-5.66988 -2.80845,4.45986 5.92603,9.1949 10.49038,11.83013 z"
       style="fill:#000000;fill-opacity:1;fill-rule:evenodd;stroke:#ffffff;stroke-width:1px;stroke-linecap:butt;stroke-linejoin:miter;stroke-opacity:1"
       id="path4174-4" />
    <path
       id="path4176-8"
       style="fill:#000000;fill-opacity:1;fill-rule:evenodd;stroke:#ffffff;stroke-width:1px;stroke-linecap:butt;stroke-linejoin:miter;stroke-opacity:1"
       d="m 206.99238,308.40864 c -4.33013,-2.5 -6.16025,-9.33013 -19.15063,-16.83013 -12.99039,-7.5 -19.82051,-5.66987 -24.15064,-8.16987 -4.33013,-2.5 21.37782,-4.97802 29.15064,-0.49038 7.77281,4.48763 18.48076,27.99038 14.15063,25.49038 z"
       inkscape:connector-curvature="0"
       sodipodi:nodetypes="szzss" />
  </g>
</svg>
