<?xml version="1.0" encoding="UTF-8" standalone="no"?>
<!-- Created with Inkscape (http://www.inkscape.org/) -->

<svg
   xmlns:dc="http://purl.org/dc/elements/1.1/"
   xmlns:cc="http://creativecommons.org/ns#"
   xmlns:rdf="http://www.w3.org/1999/02/22-rdf-syntax-ns#"
   xmlns:svg="http://www.w3.org/2000/svg"
   xmlns="http://www.w3.org/2000/svg"
   xmlns:sodipodi="http://sodipodi.sourceforge.net/DTD/sodipodi-0.dtd"
   xmlns:inkscape="http://www.inkscape.org/namespaces/inkscape"
   width="42mm"
   height="42mm"
   viewBox="0 0 148.8189 148.8189"
   id="svg2"
   version="1.1"
   inkscape:version="0.91 r13725"
   sodipodi:docname="mask.svg">
  <defs
     id="defs4" />
  <sodipodi:namedview
     id="base"
     pagecolor="#ffffff"
     bordercolor="#666666"
     borderopacity="1.0"
     inkscape:pageopacity="0.0"
     inkscape:pageshadow="2"
     inkscape:zoom="5.6"
     inkscape:cx="103.88566"
     inkscape:cy="93.937737"
     inkscape:document-units="px"
     inkscape:current-layer="layer1"
     showgrid="true"
     inkscape:snap-bbox="true"
     inkscape:object-paths="false"
     inkscape:snap-intersection-paths="true"
     inkscape:object-nodes="true"
     inkscape:snap-grids="true"
     inkscape:snap-smooth-nodes="true"
     inkscape:window-width="1920"
     inkscape:window-height="976"
     inkscape:window-x="0"
     inkscape:window-y="31"
     inkscape:window-maximized="1"
     fit-margin-top="0"
     fit-margin-left="0"
     fit-margin-right="0"
     fit-margin-bottom="0">
    <inkscape:grid
       type="xygrid"
       id="grid4158"
       originx="-111.06657"
       originy="-720.47282" />
  </sodipodi:namedview>
  <metadata
     id="metadata7">
    <rdf:RDF>
      <cc:Work
         rdf:about="">
        <dc:format>image/svg+xml</dc:format>
        <dc:type
           rdf:resource="http://purl.org/dc/dcmitype/StillImage" />
        <dc:title></dc:title>
      </cc:Work>
    </rdf:RDF>
  </metadata>
  <g
     inkscape:label="Layer 1"
     inkscape:groupmode="layer"
     id="layer1"
     transform="translate(-111.06657,-183.07051)">
    <g
       id="g4291"
       transform="translate(0.34174123,-9.3958458)">
      <g
         id="g4278">
        <path
           id="path4172"
           style="fill:#000000;fill-opacity:1;fill-rule:evenodd;stroke:#ffffff;stroke-width:1px;stroke-linecap:butt;stroke-linejoin:miter;stroke-opacity:1"
           d="m 155,317.3622 c 25,0 55,-30 38.88832,-104.44416 C 191.81081,203.31891 168.0944,202.3622 155,202.3622 c -13.0944,0 -36.81081,0.95671 -38.88832,10.55584 C 100,287.3622 130,317.3622 155,317.3622 Z"
           inkscape:connector-curvature="0"
           sodipodi:nodetypes="zsssz" />
        <g
           id="g4273">
          <path
             sodipodi:nodetypes="sssss"
             inkscape:connector-curvature="0"
             d="m 135,236.79952 c -5.27046,0 -14.62638,-0.2572 -15,5 -0.26419,3.7174 6.29547,4.59335 10,5 6.83081,0.74983 19.73628,1.86678 20,-5 0.20226,-5.26658 -9.72954,-5 -15,-5 z"
             style="fill:#ffffff;fill-opacity:1;fill-rule:evenodd;stroke:#000000;stroke-width:1px;stroke-linecap:butt;stroke-linejoin:miter;stroke-opacity:1"
             id="path4164" />
          <path
             id="path4174"
             style="fill:#ffffff;fill-opacity:1;fill-rule:evenodd;stroke:#000000;stroke-width:1px;stroke-linecap:butt;stroke-linejoin:miter;stroke-opacity:1"
             d="m 175,236.79952 c 5.27046,0 14.62638,-0.2572 15,5 0.26419,3.7174 -6.29547,4.59335 -10,5 -6.83081,0.74983 -19.73628,1.86678 -20,-5 -0.20226,-5.26658 9.72954,-5 15,-5 z"
             inkscape:connector-curvature="0"
             sodipodi:nodetypes="sssss" />
          <path
             sodipodi:nodetypes="szzss"
             inkscape:connector-curvature="0"
             d="m 180,277.3622 c -5,0 -10,5 -25,5 -15,0 -20,-5 -25,-5 -5,0 16.02473,15 25,15 8.97527,0 30,-15 25,-15 z"
             style="fill:#ffffff;fill-opacity:1;fill-rule:evenodd;stroke:#000000;stroke-width:1px;stroke-linecap:butt;stroke-linejoin:miter;stroke-opacity:1"
             id="path4176" />
        </g>
      </g>
      <g
         transform="matrix(0.8660254,0.5,-0.5,0.8660254,81.684374,-45.747593)"
         id="g4285">
        <path
           id="path4172-3"
           style="fill:#000000;fill-opacity:1;fill-rule:evenodd;stroke:#ffffff;stroke-width:1px;stroke-linecap:butt;stroke-linejoin:miter;stroke-opacity:1"
           d="m 265,277.3622 c 25,0 55,-30 38.88832,-104.44416 C 301.81081,163.31891 278.0944,162.36221 265,162.36221 c -13.0944,0 -36.81081,0.9567 -38.88832,10.55583 C 210,247.3622 240,277.3622 265,277.3622 Z"
           inkscape:connector-curvature="0"
           sodipodi:nodetypes="zsssz" />
        <path
           id="path4164-0"
           style="fill:#ffffff;fill-opacity:1;fill-rule:evenodd;stroke:#000000;stroke-width:1px;stroke-linecap:butt;stroke-linejoin:miter;stroke-opacity:1"
           d="m 245,207.36221 c -5.27046,0 -14.62638,0.2572 -15,-5 -0.26419,-3.7174 6.29547,-4.59335 10,-5 6.83081,-0.74984 19.73628,-1.86679 20,5 0.20226,5.26657 -9.72954,5 -15,5 z"
           inkscape:connector-curvature="0"
           sodipodi:nodetypes="sssss" />
        <path
           sodipodi:nodetypes="sssss"
           inkscape:connector-curvature="0"
           d="m 285,207.36221 c 5.27046,0 14.62638,0.2572 15,-5 0.26419,-3.7174 -6.29547,-4.59335 -10,-5 -6.83081,-0.74984 -19.73628,-1.86679 -20,5 -0.20226,5.26657 9.72954,5 15,5 z"
           style="fill:#ffffff;fill-opacity:1;fill-rule:evenodd;stroke:#000000;stroke-width:1px;stroke-linecap:butt;stroke-linejoin:miter;stroke-opacity:1"
           id="path4174-4" />
        <path
           id="path4176-8"
           style="fill:#ffffff;fill-opacity:1;fill-rule:evenodd;stroke:#000000;stroke-width:1px;stroke-linecap:butt;stroke-linejoin:miter;stroke-opacity:1"
           d="m 290,252.3622 c -5,0 -10,-5 -25,-5 -15,0 -20,5 -25,5 -5,0 16.02473,-15 25,-15 8.97527,0 30,15 25,15 z"
           inkscape:connector-curvature="0"
           sodipodi:nodetypes="szzss" />
      </g>
    </g>
  </g>
</svg>
