<?xml version="1.0" encoding="UTF-8" standalone="no"?>
<!-- Created with Inkscape (http://www.inkscape.org/) -->

<svg
        xmlns:dc="http://purl.org/dc/elements/1.1/"
        xmlns:cc="http://creativecommons.org/ns#"
        xmlns:rdf="http://www.w3.org/1999/02/22-rdf-syntax-ns#"
        xmlns="http://www.w3.org/2000/svg"
        xmlns:sodipodi="http://sodipodi.sourceforge.net/DTD/sodipodi-0.dtd"
        xmlns:inkscape="http://www.inkscape.org/namespaces/inkscape"
        id="svg3039"
        version="1.1"
        inkscape:version="0.48.4 r9939"
        width="1272.7485"
        height="277.95074"
        sodipodi:docname="credo_logo.svg"
        inkscape:export-filename="/home/labuser/credo_data/credo_logo.png"
        inkscape:export-xdpi="32.379837"
        inkscape:export-ydpi="32.379837">
  <metadata
     id="metadata3045">
    <rdf:RDF>
      <cc:Work
         rdf:about="">
        <dc:format>image/svg+xml</dc:format>
        <dc:type
           rdf:resource="http://purl.org/dc/dcmitype/StillImage" />
        <dc:title></dc:title>
      </cc:Work>
    </rdf:RDF>
  </metadata>
  <defs
     id="defs3043" />
  <sodipodi:namedview
     pagecolor="#ffffff"
     bordercolor="#666666"
     borderopacity="1"
     objecttolerance="10"
     gridtolerance="10"
     guidetolerance="10"
     inkscape:pageopacity="0"
     inkscape:pageshadow="2"
     inkscape:window-width="1920"
     inkscape:window-height="1031"
     id="namedview3041"
     showgrid="false"
     inkscape:zoom="0.82526002"
     inkscape:cx="449.7654"
     inkscape:cy="103.47064"
     inkscape:window-x="0"
     inkscape:window-y="25"
     inkscape:window-maximized="1"
     inkscape:current-layer="svg3039"
     fit-margin-top="0"
     fit-margin-left="0"
     fit-margin-right="0"
     fit-margin-bottom="0" />
  <g
     id="g3106"
     style="fill:#000000;fill-opacity:1"
     transform="translate(-1522.7279,-1859.0446)">
    <path
       sodipodi:nodetypes="caaaccsaaaaacc"
       inkscape:connector-curvature="0"
       id="path3049"
       d="m 1802.5542,1876.9026 c -23.2772,-10.8532 -47.2176,-16.7802 -71.7595,-16.494 -20.2604,0.2363 -41.1165,5.2972 -58.907,14.9945 -13.3525,7.2783 -25.0731,18.3457 -33.4163,31.0601 -9.763,14.8781 -13.9235,27.7755 -17.7792,50.3387 25.2765,-0.071 74.9726,-10e-5 74.9726,-10e-5 -0.2514,0.5656 -0.2507,-4.773 4.0699,-13.4949 2.1045,-4.2485 5.8432,-9.2387 9.8535,-12.8525 4.6669,-4.2055 10.1558,-7.7229 16.0656,-9.8536 7.1244,-2.5686 14.9203,-3.3838 22.4917,-3.2131 8.0642,0.1818 16.0743,2.1039 23.777,4.4984 5.7392,1.7841 11.2251,4.3916 16.494,7.283 4.9653,2.7248 9.4251,6.2834 14.1377,9.4251 0,-20.5639 0,-41.1277 0,-61.6916 z"
       style="fill:#000000;fill-opacity:1;stroke:#000000;stroke-width:1px;stroke-linecap:butt;stroke-linejoin:miter;stroke-opacity:1" />
    <path
       style="fill:#000000;fill-opacity:1;stroke:#000000;stroke-width:1px;stroke-linecap:butt;stroke-linejoin:miter;stroke-opacity:1"
       d="m 1802.7684,2057.296 c -23.2772,10.8532 -47.2176,16.7802 -71.7595,16.494 -20.2604,-0.2363 -41.1165,-5.2972 -58.907,-14.9945 -13.3525,-7.2783 -25.0731,-18.3457 -33.4163,-31.0601 -9.763,-14.8781 -13.9235,-27.7755 -17.7792,-50.3387 25.2765,0.071 74.9726,10e-5 74.9726,10e-5 -0.2514,-0.5656 -0.2507,4.773 4.0699,13.4949 2.1045,4.2485 5.8432,9.2387 9.8535,12.8525 4.6669,4.2055 10.2067,7.5866 16.0656,9.8536 7.1178,2.7541 14.8653,3.9921 22.4917,4.2841 7.6823,0.2942 15.409,-0.9312 22.9202,-2.5705 6.0224,-1.3144 12.0226,-3.0854 17.565,-5.7835 5.0924,-2.4791 9.4251,-6.2834 14.1377,-9.4251 0,20.5639 -0.2142,36.6293 -0.2142,57.1932 z"
       id="path3051"
       inkscape:connector-curvature="0"
       sodipodi:nodetypes="caaaccsaaaaacc" />
    <path
       sodipodi:nodetypes="ccccaaaaccaaacc"
       inkscape:connector-curvature="0"
       id="path3072"
       d="m 1835.1137,1977.58 0,94.2512 75.4009,0 -0.2142,-87.6108 c 2.9275,-0.2142 7.2896,-0.4014 10.7103,0.6426 4.4391,1.3548 8.5921,3.9136 11.9957,7.0689 5.0404,4.6728 8.2821,11.0066 11.7814,16.9223 4.6659,7.8879 8.4054,16.2963 12.2098,24.6339 5.6865,12.4622 10.5675,25.2765 15.8513,37.9147 l 74.7584,0.4284 c 0,0 -10.05,-21.6818 -14.9945,-32.5595 -3.4651,-7.623 -6.6678,-15.3667 -10.282,-22.9202 -3.8041,-7.9503 -7.6051,-15.9207 -11.9955,-23.5628 -3.0882,-5.3754 -5.4266,-7.9971 -10.0678,-15.6371 z"
       style="fill:#000000;fill-opacity:1;stroke:#000000;stroke-width:1px;stroke-linecap:butt;stroke-linejoin:miter;stroke-opacity:1" />
    <path
       style="fill:#000000;fill-opacity:1;stroke:#000000;stroke-width:1px;stroke-linecap:butt;stroke-linejoin:miter;stroke-opacity:1"
       d="m 1835.125,1863.1875 0,93.1875 169.6562,0 c 3.5716,-3.7556 4.0942,-5.0617 5.5626,-7.9375 2.0945,-4.1027 3.4802,-8.5703 4.5,-13.0625 0.8273,-3.6448 1.2272,-7.3879 1.2812,-11.125 0.06,-4.1563 -0.1268,-8.3875 -1.0625,-12.4375 -1.206,-5.2196 -3.3105,-10.2631 -5.8125,-15 -2.3495,-4.4483 -5.1045,-8.7524 -8.5625,-12.4063 -3.8484,-4.0662 -8.3762,-7.5823 -13.2813,-10.2812 -6.9855,-3.8436 -14.6821,-6.5913 -22.4687,-8.1562 -7.113,-1.4296 -12.3231,-2.5459 -20.7813,-2.5626 l -109.0312,-0.2187 z m 74.9688,36.8437 15.4062,0.4376 c 9.0574,0.2515 17.5901,7.6483 18.2188,17.7812 0.2962,4.7753 0.8399,9.0529 -0.2188,13.7188 -2.0462,9.0175 -4.7849,12.1845 -14.7812,16.4687 l -18.4063,0.2187 -0.2187,-48.625 z"
       id="path3074"
       inkscape:connector-curvature="0" />
    <path
       inkscape:connector-curvature="0"
       id="path3078"
       d="m 2067.957,1977.58 0,94.037 152.3013,0 0,-48.4109 -77.3288,-0.4284 0,-32.9879 72.4021,0.4284 0.2142,-12.6382 z"
       style="fill:#000000;fill-opacity:1;stroke:#000000;stroke-width:1px;stroke-linecap:butt;stroke-linejoin:miter;stroke-opacity:1" />
    <path
       inkscape:connector-curvature="0"
       id="path3080"
       d="m 2067.957,1862.9791 0,93.1801 147.3746,0 0,-14.1376 -71.5453,0 0,-30.2033 76.472,0 0,-49.0534 z"
       style="fill:#000000;fill-opacity:1;stroke:#000000;stroke-width:1px;stroke-linecap:butt;stroke-linejoin:miter;stroke-opacity:1" />
    <path
       sodipodi:nodetypes="ccsaaaaaaccaaaaccc"
       inkscape:connector-curvature="0"
       id="path3082"
       d="m 2251.7468,1977.7942 0,94.037 107.9605,0 c 8.635,0 17.3018,-1.2253 25.7048,-3.2131 8.3292,-1.9703 16.5918,-4.6581 24.2055,-8.5683 7.6646,-3.9364 14.895,-8.9146 21.2065,-14.7803 5.7261,-5.3217 10.6329,-11.5814 14.7803,-18.2077 3.7624,-6.0111 6.6011,-12.604 8.9967,-19.2786 2.3167,-6.4548 4.001,-13.1587 5.141,-19.9213 0.5835,-3.4615 0.7171,-10.4961 0.8568,-10.4961 l -71.7594,0 c -1.0467,8.1399 -1.3425,9.8204 -3.2131,14.3519 -2.0938,5.0721 -5.0775,9.8758 -8.7825,13.9234 -3.8184,4.1715 -8.4015,7.825 -13.4951,10.282 -5.506,2.6559 -11.7129,3.7428 -17.7792,4.4983 -6.2352,0.7766 -18.8502,0 -18.8502,0 l 0,-43.0556 z"
       style="fill:#000000;fill-opacity:1;stroke:#000000;stroke-width:1px;stroke-linecap:butt;stroke-linejoin:miter;stroke-opacity:1" />
    <path
       style="fill:#000000;fill-opacity:1;stroke:#000000;stroke-width:1px;stroke-linecap:butt;stroke-linejoin:miter;stroke-opacity:1"
       d="m 2251.7468,1955.9451 -0.2142,-93.1802 100.0348,0.2142 c 8.635,0.018 17.4108,1.711 25.919,3.6416 8.7649,1.9888 17.6017,4.2521 25.705,8.1398 8.1239,3.8977 15.6613,9.1178 22.4917,14.9945 6.4372,5.5385 12.2066,11.9362 17.1366,18.8504 3.97,5.5678 7.1621,11.707 9.8535,17.9933 2.5953,6.0616 4.4218,12.4476 5.9979,18.8503 0.8838,3.5906 1.9278,10.9245 1.9278,10.9245 l -71.7594,0 c -1.0467,-8.1399 -1.3425,-9.8204 -3.2131,-14.3519 -2.0938,-5.0721 -5.0775,-9.8758 -8.7825,-13.9234 -3.8184,-4.1715 -8.4015,-7.825 -13.4951,-10.282 -5.506,-2.6559 -11.7129,-3.7428 -17.7792,-4.4983 -6.2352,-0.7766 -18.8502,0 -18.8502,0 l 0,43.0556 z"
       id="path3084"
       inkscape:connector-curvature="0"
       sodipodi:nodetypes="cccaaaaaaccaaaaccc" />
    <path
       sodipodi:nodetypes="ccaaaaaaaaccaaaaaaaaaaaaaaac"
       inkscape:connector-curvature="0"
       id="path3086"
       d="m 2477.5213,1956.3734 76.2578,-0.2142 c 0,0 1.0225,-7.0285 2.3562,-10.2819 1.4958,-3.6486 3.6896,-7.0367 6.2121,-10.0677 2.587,-3.1085 5.5306,-6.0563 8.9967,-8.1399 3.0586,-1.8386 6.5475,-3.0551 10.0677,-3.6415 4.1561,-0.6923 8.4945,-0.5484 12.6382,0.2142 3.5098,0.6459 7.0152,1.7929 10.0678,3.6415 2.9827,1.8063 5.5351,4.3443 7.7114,7.0688 2.515,3.1485 4.4779,6.7642 5.9978,10.4962 1.3914,3.4163 3.38,10.7103 2.7847,10.7103 l 75.8294,0 c 0.1471,-10.0677 -1.3835,-13.8717 -3.2131,-20.5639 -1.9861,-7.2646 -4.8631,-14.3191 -8.3541,-20.9923 -3.2955,-6.2995 -7.3515,-12.2186 -11.7814,-17.7792 -3.7449,-4.7007 -7.814,-9.2105 -12.424,-13.0666 -5.5748,-4.6631 -11.8158,-8.536 -18.2076,-11.9956 -5.2029,-2.8161 -10.6341,-5.3007 -16.2798,-7.0689 -6.6014,-2.0675 -13.4863,-3.2056 -20.3497,-4.0699 -6.6687,-0.8398 -13.4144,-1.1292 -20.1355,-1.071 -6.0841,0.053 -12.1858,0.4157 -18.2076,1.2852 -6.5844,0.9508 -13.1693,2.2173 -19.4928,4.2842 -5.0443,1.6488 -9.8816,3.9325 -14.5661,6.4262 -6.2601,3.3325 -12.4026,6.9898 -17.9934,11.3529 -5.2155,4.0703 -10.1063,8.6355 -14.3519,13.7093 -4.5624,5.4525 -8.4558,11.4955 -11.7814,17.7792 -3.1756,6.0003 -5.8273,12.3281 -7.7114,18.8503 -2.1731,7.5222 -3.6312,11.9955 -4.07,23.1343 z"
       style="fill:#000000;fill-opacity:1;stroke:#000000;stroke-width:1px;stroke-linecap:butt;stroke-linejoin:miter;stroke-opacity:1" />
    <path
       style="fill:#000000;fill-opacity:1;stroke:#000000;stroke-width:1px;stroke-linecap:butt;stroke-linejoin:miter;stroke-opacity:1"
       d="m 2477.7355,1977.787 76.2578,0.2142 c 0,0 1.0225,7.0285 2.3562,10.2819 1.4958,3.6486 3.6896,7.0367 6.2121,10.0677 2.587,3.1085 5.5306,6.0563 8.9967,8.1399 3.0586,1.8386 6.5475,3.0551 10.0677,3.6415 4.1561,0.6923 8.4945,0.5484 12.6382,-0.2142 3.5098,-0.6459 7.0152,-1.7929 10.0678,-3.6415 2.9827,-1.8063 5.5351,-4.3443 7.7114,-7.0688 2.515,-3.1485 4.4779,-6.7642 5.9978,-10.4962 1.3914,-3.4163 3.38,-10.7103 2.7847,-10.7103 l 75.8294,0 c 0.1471,10.0677 -1.3835,13.8717 -3.2131,20.5639 -1.9861,7.2646 -4.8631,14.3191 -8.3541,20.9923 -3.2955,6.2995 -7.3515,12.2186 -11.7814,17.7792 -3.7449,4.7007 -7.814,9.2105 -12.424,13.0666 -5.5748,4.6631 -11.8158,8.536 -18.2076,11.9956 -5.2029,2.8161 -10.6341,5.3007 -16.2798,7.0689 -6.6014,2.0675 -13.4863,3.2056 -20.3497,4.0699 -6.6687,0.8398 -13.4144,1.1292 -20.1355,1.071 -6.0841,-0.053 -12.1858,-0.4157 -18.2076,-1.2852 -6.5844,-0.9508 -13.1693,-2.2173 -19.4928,-4.2842 -5.0443,-1.6488 -9.8816,-3.9325 -14.5661,-6.4262 -6.2601,-3.3325 -12.4026,-6.9898 -17.9934,-11.3529 -5.2155,-4.0703 -10.1063,-8.6355 -14.3519,-13.7093 -4.5624,-5.4525 -8.4558,-11.4955 -11.7814,-17.7792 -3.1756,-6.0003 -5.8273,-12.3281 -7.7114,-18.8503 -2.1731,-7.5222 -3.6312,-11.9955 -4.07,-23.1343 z"
       id="path3088"
       inkscape:connector-curvature="0"
       sodipodi:nodetypes="ccaaaaaaaaccaaaaaaaaaaaaaaac" />
    <path
       inkscape:connector-curvature="0"
       id="path3090"
       d="m 2794.9764,1970.5111 0,-7.283 -1271.7485,0 0,7.283 z"
       style="fill:#000000;fill-opacity:1;stroke:#000000;stroke-width:1px;stroke-linecap:butt;stroke-linejoin:miter;stroke-opacity:1" />
  </g>
  <flowRoot
     xml:space="preserve"
     id="flowRoot3092"
     style="font-size:40px;font-style:normal;font-weight:normal;line-height:125%;letter-spacing:0px;word-spacing:0px;fill:#000000;fill-opacity:1;stroke:none;font-family:Sans"
     transform="translate(-1522.7279,-1859.0446)"><flowRegion
       id="flowRegion3094"><rect
         id="rect3096"
         width="92.537537"
         height="70.6884"
         x="1365.3572"
         y="2058.9788" /></flowRegion><flowPara
       id="flowPara3098">CREATIVE RESACR</flowPara><flowPara
       id="flowPara3100" /></flowRoot>  <text
     xml:space="preserve"
     style="font-size:39.99999998px;font-style:normal;font-variant:normal;font-weight:bold;font-stretch:normal;text-align:center;line-height:100%;letter-spacing:0px;word-spacing:0px;writing-mode:lr;text-anchor:middle;fill:#000000;fill-opacity:1;stroke:none;font-family:Sans;-inkscape-font-specification:Sans Bold"
     x="660.56274"
     y="262.59631"
     id="text3102"
     sodipodi:linespacing="100%"
     transform="scale(0.96470064,1.036591)"><tspan
       sodipodi:role="line"
       id="tspan3104"
       x="660.56274"
       y="262.59631">CREATIVE RESEARCH EQUIPMENT FOR DIFFRACTION</tspan></text>
</svg>
